<svg width="34" height="96" viewBox="0 0 34 96" fill="none" xmlns="http://www.w3.org/2000/svg">
<path d="M30.8382 8.20693L30.6189 8.82629L31.2041 9.12513C32.4047 9.7383 33.25 11.0441 33.25 12.5712V12.5724C33.25 14.015 32.493 15.2591 31.3971 15.9089L30.9748 16.1593L31.0353 16.6465C31.056 16.8128 31.0672 16.9761 31.0672 17.1404C31.0672 19.2852 29.4183 20.962 27.454 20.962C27.0066 20.962 26.5855 20.8814 26.2011 20.7304L25.5436 20.472L25.2464 21.1128C24.6518 22.395 23.4114 23.25 21.9992 23.25C20.5884 23.25 19.3477 22.3952 18.7513 21.1123L18.453 20.4705L17.795 20.7311C17.4115 20.883 16.9906 20.9644 16.546 20.9644C14.5813 20.9644 12.9328 19.2877 12.9328 17.1428C12.9328 16.9784 12.944 16.8137 12.9641 16.6426L13.0209 16.1586L12.6017 15.9101C11.5046 15.2596 10.75 14.0159 10.75 12.5712C10.75 11.0418 11.5949 9.73824 12.7949 9.12505L13.3794 8.82638L13.1608 8.20747C13.0132 7.78957 12.9328 7.33684 12.9328 6.8572C12.9328 4.71197 14.5813 3.0356 16.546 3.0356C16.9919 3.0356 17.4132 3.11622 17.796 3.26824L18.4538 3.52947L18.7526 2.88791C19.3499 1.60577 20.5916 0.75 22.0008 0.75C23.4109 0.75 24.6526 1.60405 25.246 2.88818L25.5441 3.53355L26.2045 3.27028C26.5872 3.11773 27.0069 3.038 27.454 3.038C29.4167 3.038 31.0672 4.71281 31.0672 6.8572C31.0672 7.33713 30.9859 7.78971 30.8382 8.20693Z" fill="#F2B341" stroke="black" stroke-width="1.5"/>
<path d="M26.2375 8.53399L21.2847 15.9624C21.1191 16.2104 20.8479 16.344 20.5703 16.344C20.4071 16.344 20.2411 16.2984 20.0947 16.2L19.9635 16.0928L17.2035 13.3328C16.8687 12.998 16.8687 12.4548 17.2035 12.1212C17.5383 11.7876 18.0811 11.7852 18.4151 12.1212L20.4379 14.1408L24.8091 7.58079C25.0719 7.18639 25.6043 7.08239 25.9971 7.34399C26.3927 7.60719 26.5003 8.13959 26.2375 8.53279V8.53399Z" fill="black"/>
<path d="M8.86975 17.4362L8.86974 17.4362C8.46325 17.3394 8.06925 17.1961 7.6955 17.0092L4.38591 15.3544C2.72902 14.526 1.62829 12.8889 1.48621 11.0419L1.41707 10.1431C1.32949 9.00461 1.79851 7.89419 2.67569 7.1632C3.36659 6.58745 4.25134 6.29739 5.14902 6.35234L10.2562 6.66498C12.0304 6.77358 13.6481 7.71688 14.6164 9.2075L14.6833 9.3105L15.3123 8.90193L14.6833 9.3105C15.6142 10.7434 15.8069 12.534 15.2022 14.1322C14.2472 16.6563 11.5659 18.0783 8.9406 17.4531L8.86975 17.4362Z" fill="white" stroke="black" stroke-width="1.5"/>
<path d="M30.8382 32.2069L30.6189 32.8263L31.2041 33.1251C32.4047 33.7383 33.25 35.0441 33.25 36.5712V36.5724C33.25 38.015 32.493 39.2591 31.3971 39.9089L30.9748 40.1593L31.0353 40.6465C31.056 40.8128 31.0672 40.9761 31.0672 41.1404C31.0672 43.2852 29.4183 44.962 27.454 44.962C27.0066 44.962 26.5855 44.8814 26.2011 44.7304L25.5436 44.472L25.2464 45.1128C24.6518 46.395 23.4114 47.25 21.9992 47.25C20.5884 47.25 19.3477 46.3952 18.7513 45.1123L18.453 44.4705L17.795 44.7311C17.4115 44.883 16.9906 44.9644 16.546 44.9644C14.5813 44.9644 12.9328 43.2877 12.9328 41.1428C12.9328 40.9784 12.944 40.8137 12.9641 40.6426L13.0209 40.1586L12.6017 39.9101C11.5046 39.2596 10.75 38.0159 10.75 36.5712C10.75 35.0418 11.5949 33.7382 12.7949 33.1251L13.3794 32.8264L13.1608 32.2075C13.0132 31.7896 12.9328 31.3368 12.9328 30.8572C12.9328 28.712 14.5813 27.0356 16.546 27.0356C16.9919 27.0356 17.4132 27.1162 17.796 27.2682L18.4538 27.5295L18.7526 26.8879C19.3499 25.6058 20.5916 24.75 22.0008 24.75C23.4109 24.75 24.6526 25.604 25.246 26.8882L25.5441 27.5335L26.2045 27.2703C26.5872 27.1177 27.0069 27.038 27.454 27.038C29.4167 27.038 31.0672 28.7128 31.0672 30.8572C31.0672 31.3371 30.9859 31.7897 30.8382 32.2069Z" fill="#F2B341" stroke="black" stroke-width="1.5"/>
<path d="M26.2375 32.534L21.2847 39.9624C21.1191 40.2104 20.8479 40.344 20.5703 40.344C20.4071 40.344 20.2411 40.2984 20.0947 40.2L19.9635 40.0928L17.2035 37.3328C16.8687 36.998 16.8687 36.4548 17.2035 36.1212C17.5383 35.7876 18.0811 35.7852 18.4151 36.1212L20.4379 38.1408L24.8091 31.5808C25.0719 31.1864 25.6043 31.0824 25.9971 31.344C26.3927 31.6072 26.5003 32.1396 26.2375 32.5328V32.534Z" fill="black"/>
<path d="M4.98189 32.0515L10.072 31.3451C11.9361 31.0864 13.7941 31.9416 14.822 33.524C15.6608 34.8151 15.8352 36.4391 15.2839 37.8726C14.5223 39.8526 12.5512 41.0979 10.436 40.9352L8.08188 40.7541L5.03325 40.3186C3.09094 40.0411 1.59286 38.4282 1.44171 36.4633C1.33921 35.1309 1.88806 33.8196 2.91078 32.9673C3.50205 32.4746 4.21953 32.1573 4.98189 32.0515Z" fill="white" stroke="black" stroke-width="1.5"/>
<path d="M30.8382 56.2069L30.6189 56.8263L31.2041 57.1251C32.4047 57.7383 33.25 59.0441 33.25 60.5712V60.5724C33.25 62.015 32.493 63.2591 31.3971 63.9089L30.9748 64.1593L31.0353 64.6465C31.056 64.8128 31.0672 64.9761 31.0672 65.1404C31.0672 67.2852 29.4183 68.962 27.454 68.962C27.0066 68.962 26.5855 68.8814 26.2011 68.7304L25.5436 68.472L25.2464 69.1128C24.6518 70.395 23.4114 71.25 21.9992 71.25C20.5884 71.25 19.3477 70.3952 18.7513 69.1123L18.453 68.4705L17.795 68.7311C17.4115 68.883 16.9906 68.9644 16.546 68.9644C14.5813 68.9644 12.9328 67.2877 12.9328 65.1428C12.9328 64.9784 12.944 64.8137 12.9641 64.6426L13.0209 64.1586L12.6017 63.9101C11.5046 63.2596 10.75 62.0159 10.75 60.5712C10.75 59.0418 11.5949 57.7382 12.7949 57.1251L13.3794 56.8264L13.1608 56.2075C13.0132 55.7896 12.9328 55.3368 12.9328 54.8572C12.9328 52.712 14.5813 51.0356 16.546 51.0356C16.9919 51.0356 17.4132 51.1162 17.796 51.2682L18.4538 51.5295L18.7526 50.8879C19.3499 49.6058 20.5916 48.75 22.0008 48.75C23.4109 48.75 24.6526 49.604 25.246 50.8882L25.5441 51.5335L26.2045 51.2703C26.5872 51.1177 27.0069 51.038 27.454 51.038C29.4167 51.038 31.0672 52.7128 31.0672 54.8572C31.0672 55.3371 30.9859 55.7897 30.8382 56.2069Z" fill="#F2B341" stroke="black" stroke-width="1.5"/>
<path d="M26.2375 56.534L21.2847 63.9624C21.1191 64.2104 20.8479 64.344 20.5703 64.344C20.4071 64.344 20.2411 64.2984 20.0947 64.2L19.9635 64.0928L17.2035 61.3328C16.8687 60.998 16.8687 60.4548 17.2035 60.1212C17.5383 59.7876 18.0811 59.7852 18.4151 60.1212L20.4379 62.1408L24.8091 55.5808C25.0719 55.1864 25.6043 55.0824 25.9971 55.344C26.3927 55.6072 26.5003 56.1396 26.2375 56.5328V56.534Z" fill="black"/>
<path d="M8.86975 55.4452L8.86974 55.4452C8.46325 55.5421 8.06925 55.6853 7.6955 55.8722L4.38591 57.527C2.72902 58.3554 1.62829 59.9925 1.48621 61.8395L1.41707 62.7383C1.32949 63.8768 1.79851 64.9872 2.67569 65.7182C3.36659 66.294 4.25134 66.584 5.14902 66.5291L10.2562 66.2164C12.0304 66.1078 13.6481 65.1645 14.6164 63.6739L14.6833 63.5709L15.3123 63.9795L14.6833 63.5709C15.6142 62.138 15.8069 60.3474 15.2022 58.7492C14.2472 56.2251 11.5659 54.8031 8.9406 55.4284L8.86975 55.4452Z" fill="white" stroke="black" stroke-width="1.5"/>
<path d="M30.8382 80.2069L30.6189 80.8263L31.2041 81.1251C32.4047 81.7383 33.25 83.0441 33.25 84.5712V84.5724C33.25 86.015 32.493 87.2591 31.3971 87.9089L30.9748 88.1593L31.0353 88.6465C31.056 88.8128 31.0672 88.9761 31.0672 89.1404C31.0672 91.2852 29.4183 92.962 27.454 92.962C27.0066 92.962 26.5855 92.8814 26.2011 92.7304L25.5436 92.472L25.2464 93.1128C24.6518 94.395 23.4114 95.25 21.9992 95.25C20.5884 95.25 19.3477 94.3952 18.7513 93.1123L18.453 92.4705L17.795 92.7311C17.4115 92.883 16.9906 92.9644 16.546 92.9644C14.5813 92.9644 12.9328 91.2877 12.9328 89.1428C12.9328 88.9784 12.944 88.8137 12.9641 88.6426L13.0209 88.1586L12.6017 87.9101C11.5046 87.2596 10.75 86.0159 10.75 84.5712C10.75 83.0418 11.5949 81.7382 12.7949 81.1251L13.3794 80.8264L13.1608 80.2075C13.0132 79.7896 12.9328 79.3368 12.9328 78.8572C12.9328 76.712 14.5813 75.0356 16.546 75.0356C16.9919 75.0356 17.4132 75.1162 17.796 75.2682L18.4538 75.5295L18.7526 74.8879C19.3499 73.6058 20.5916 72.75 22.0008 72.75C23.4109 72.75 24.6526 73.604 25.246 74.8882L25.5441 75.5335L26.2045 75.2703C26.5872 75.1177 27.0069 75.038 27.454 75.038C29.4167 75.038 31.0672 76.7128 31.0672 78.8572C31.0672 79.3371 30.9859 79.7897 30.8382 80.2069Z" fill="#F2B341" stroke="black" stroke-width="1.5"/>
<path d="M26.2375 80.534L21.2847 87.9624C21.1191 88.2104 20.8479 88.344 20.5703 88.344C20.4071 88.344 20.2411 88.2984 20.0947 88.2L19.9635 88.0928L17.2035 85.3328C16.8687 84.998 16.8687 84.4548 17.2035 84.1212C17.5383 83.7876 18.0811 83.7852 18.4151 84.1212L20.4379 86.1408L24.8091 79.5808C25.0719 79.1864 25.6043 79.0824 25.9971 79.344C26.3927 79.6072 26.5003 80.1396 26.2375 80.5328V80.534Z" fill="black"/>
<path d="M4.98189 80.0515L10.072 79.3451C11.9361 79.0864 13.7941 79.9416 14.822 81.524C15.6608 82.8151 15.8352 84.4391 15.2839 85.8726C14.5223 87.8526 12.5512 89.0979 10.436 88.9352L8.08188 88.7541L5.03325 88.3186C3.09094 88.0411 1.59286 86.4282 1.44171 84.4633C1.33921 83.1309 1.88806 81.8196 2.91078 80.9673C3.50205 80.4746 4.21953 80.1573 4.98189 80.0515Z" fill="white" stroke="black" stroke-width="1.5"/>
</svg>
