<svg width="9" height="12" viewBox="0 0 9 12" fill="none" xmlns="http://www.w3.org/2000/svg">
<path d="M8.13076 8.79393V7.54304C8.13076 6.92693 7.90672 6.3855 7.47731 5.90008C7.90672 5.43333 8.13076 4.8919 8.13076 4.25712V3.00623C8.13076 2.29677 7.86938 1.69933 7.38396 1.21391C6.87987 0.728489 6.24509 0.485779 5.47962 0.485779H2.7538C1.96966 0.485779 1.33488 0.728489 0.849461 1.21391C0.345371 1.69933 0.102661 2.29677 0.102661 3.00623V3.92106H1.96966V2.91288C1.96966 2.72618 2.02567 2.57682 2.15636 2.42746C2.28705 2.29677 2.43641 2.22209 2.62311 2.22209H5.61031C5.77834 2.22209 5.9277 2.29677 6.05839 2.42746C6.18908 2.57682 6.26376 2.72618 6.26376 2.91288V4.36914C6.26376 4.55584 6.20775 4.7052 6.1144 4.81722C6.00238 4.94791 5.90903 5.00392 5.79701 5.00392H2.84715V6.79624H5.79701C5.90903 6.79624 6.00238 6.87092 6.1144 6.98294C6.20775 7.11363 6.26376 7.26299 6.26376 7.43102V8.88728C6.26376 9.07398 6.18908 9.24201 6.05839 9.3727C5.9277 9.52206 5.77834 9.57807 5.61031 9.57807H2.62311C2.43641 9.57807 2.28705 9.52206 2.15636 9.3727C2.02567 9.24201 1.96966 9.07398 1.96966 8.88728V8.02846H0.102661V8.79393C0.102661 9.52206 0.345371 10.1195 0.849461 10.6049C1.33488 11.0903 1.96966 11.3144 2.7538 11.3144H5.47962C6.24509 11.3144 6.87987 11.0903 7.38396 10.6049C7.86938 10.1195 8.13076 9.52206 8.13076 8.79393Z" fill="black"/>
</svg>
