<svg width="9" height="12" viewBox="0 0 9 12" fill="none" xmlns="http://www.w3.org/2000/svg">
<path d="M8.05611 11.4858V9.74952H2.19373C2.23107 9.46947 2.3991 9.17075 2.69782 8.87203C2.99654 8.57331 3.36994 8.29326 3.79935 8.03188C4.21009 7.7705 4.67684 7.49045 5.16226 7.17306C5.64768 6.87434 6.11443 6.55695 6.52517 6.25823C6.93591 5.95951 7.29064 5.58611 7.57069 5.1567C7.83207 4.74596 7.98143 4.29788 7.98143 3.83113V3.08433C7.98143 2.37487 7.72005 1.77743 7.19729 1.32935C6.67453 0.881267 6.03975 0.657227 5.29295 0.657227H2.79117C2.0257 0.657227 1.39092 0.918606 0.905498 1.4227C0.420078 1.94546 0.177368 2.56157 0.177368 3.2897V3.94315H2.08171V3.12167C2.08171 2.93497 2.13772 2.78561 2.26841 2.63625C2.3991 2.50556 2.54846 2.43088 2.73516 2.43088H5.42364C5.59167 2.43088 5.74103 2.50556 5.87172 2.63625C6.00241 2.78561 6.07709 2.93497 6.07709 3.12167V3.79379C6.07709 4.09251 5.87172 4.4099 5.46098 4.74596C5.05024 5.08202 4.56482 5.43675 3.98605 5.77281C3.40728 6.10887 2.82851 6.48227 2.24974 6.87434C1.67097 7.26641 1.18555 7.73316 0.774808 8.29326C0.364068 8.85336 0.177368 9.4508 0.177368 10.0856V11.4858H8.05611Z" fill="black"/>
</svg>
