<svg width="25" height="32" viewBox="0 0 25 32" fill="none" xmlns="http://www.w3.org/2000/svg">
<path d="M21.3489 12.8124L21.349 12.8124L21.3397 12.8037C19.7463 11.3165 17.8291 10.634 15.596 10.634H15.5871L15.5781 10.6342L8.31367 10.8072L8.44431 7.57399H21.548H22.298V6.82399V2.35999V1.60999H21.548H3.116H2.38676L2.36629 2.33894L1.98229 16.0189L1.96034 16.801L2.74263 16.7899L16.2723 16.598C16.4785 16.5994 16.7243 16.6984 17.0173 16.9861C17.2473 17.2532 17.39 17.6346 17.39 18.152V23.96C17.39 24.2281 17.2865 24.4728 17.0817 24.6777L17.064 24.6953L17.0476 24.7141C16.8636 24.9243 16.6909 24.986 16.46 24.986H8.54C8.24835 24.986 8.0806 24.9154 7.90443 24.7141L7.88799 24.6953L7.87033 24.6777C7.70207 24.5094 7.61 24.283 7.61 23.96V21.752V21.002H6.86H2.06H1.31V21.752V23.72C1.31 25.7798 2.00582 27.5136 3.45465 28.9113C4.87202 30.3258 6.70946 30.95 8.876 30.95H16.124C18.2514 30.95 20.0814 30.3211 21.5402 28.9162L21.5453 28.9113L21.5503 28.9063C22.9361 27.5205 23.69 25.7949 23.69 23.72V18.248C23.69 16.1161 22.8811 14.2918 21.3489 12.8124Z" fill="white" stroke="black" stroke-width="1.5"/>
</svg>
