<svg width="9" height="12" viewBox="0 0 9 12" fill="none" xmlns="http://www.w3.org/2000/svg">
<path d="M8.12143 9.27977V8.02888C8.12143 7.30075 7.86005 6.70331 7.35596 6.21789C6.85187 5.73247 6.21709 5.48976 5.47029 5.48976H1.979V5.30306C1.979 4.5936 2.24038 3.99616 2.76314 3.4734C3.2859 2.96931 3.90201 2.70793 4.61147 2.70793H6.03039V0.971619H4.55546C3.32324 0.971619 2.25905 1.40103 1.40023 2.24118C0.541409 3.1 0.112 4.16419 0.112 5.47109V7.28208V9.27977C0.112 10.0266 0.354709 10.624 0.858799 11.0908C1.36289 11.5762 1.99767 11.8002 2.76314 11.8002H5.47029C6.23576 11.8002 6.87054 11.5762 7.37463 11.0908C7.86005 10.6053 8.12143 10.0079 8.12143 9.27977ZM6.25443 9.37312C6.25443 9.55982 6.17975 9.72785 6.04906 9.85854C5.91837 10.0079 5.76901 10.0639 5.60098 10.0639H2.63245C2.44575 10.0639 2.29639 10.0079 2.1657 9.85854C2.03501 9.72785 1.979 9.55982 1.979 9.37312V7.24474H5.60098C5.76901 7.24474 5.91837 7.31942 6.04906 7.45011C6.17975 7.5808 6.25443 7.73016 6.25443 7.91686V9.37312Z" fill="black"/>
</svg>
