<svg width="9" height="11" viewBox="0 0 9 11" fill="none" xmlns="http://www.w3.org/2000/svg">
<path d="M8.22414 8.30815V2.52045C8.22414 1.81099 7.96276 1.21355 7.47734 0.728131C6.97325 0.24271 6.33847 0 5.573 0H2.66048C1.87634 0 1.24156 0.24271 0.756138 0.728131C0.252048 1.21355 0.00933838 1.81099 0.00933838 2.52045V8.30815C0.00933838 9.03628 0.252048 9.63372 0.756138 10.1191C1.24156 10.6046 1.87634 10.8286 2.66048 10.8286H5.573C6.33847 10.8286 6.97325 10.6046 7.47734 10.1191C7.96276 9.63372 8.22414 9.03628 8.22414 8.30815ZM6.35714 8.4015C6.35714 8.5882 6.28246 8.75623 6.15177 8.88692C6.02108 9.03628 5.87172 9.09229 5.70369 9.09229H2.52979C2.34309 9.09229 2.19373 9.03628 2.06304 8.88692C1.93235 8.75623 1.87634 8.5882 1.87634 8.4015V2.4271C1.87634 2.2404 1.93235 2.09104 2.06304 1.94168C2.19373 1.81099 2.34309 1.73631 2.52979 1.73631H5.70369C5.87172 1.73631 6.02108 1.81099 6.15177 1.94168C6.28246 2.09104 6.35714 2.2404 6.35714 2.4271V8.4015ZM5.16226 5.95573V4.89154C5.16226 4.77952 5.10625 4.6675 5.03157 4.59282C4.93822 4.51814 4.8262 4.46213 4.69551 4.46213H3.59398C3.44462 4.46213 3.3326 4.51814 3.25792 4.59282C3.16457 4.6675 3.12723 4.77952 3.12723 4.89154V5.95573C3.12723 6.08642 3.16457 6.19844 3.25792 6.27312C3.3326 6.3478 3.44462 6.38514 3.59398 6.38514H4.69551C4.8262 6.38514 4.93822 6.3478 5.03157 6.27312C5.10625 6.19844 5.16226 6.08642 5.16226 5.95573Z" fill="black"/>
</svg>
