<svg width="25" height="32" viewBox="0 0 25 32" fill="none" xmlns="http://www.w3.org/2000/svg">
<path d="M22.9144 1.93391L22.8224 1.28998H22.172H2.44397H1.69397V2.03998V6.50398V7.25398H2.44397H16.2848C16.1466 7.50468 15.9423 7.79439 15.6555 8.1221C15.0163 8.85268 14.1829 9.64174 13.229 10.5005C12.2133 11.3713 11.1927 12.2946 10.2176 13.2697C9.20553 14.2818 8.29501 15.4957 7.58615 16.8627C6.86266 18.2581 6.49397 19.7198 6.49397 21.192V29.88V30.63H7.24397H12.236H12.986V29.88V21.048C12.986 20.2753 13.2533 19.4183 13.9465 18.4651L13.9466 18.4652L13.9527 18.4565C14.4756 17.7158 15.6662 16.469 17.6832 14.6441L17.6832 14.6441L17.6868 14.6408C18.8364 13.5871 19.7228 12.751 20.3231 12.1007C20.9476 11.4241 21.6052 10.5087 22.2523 9.31504C22.9227 8.12709 23.306 6.89882 23.306 5.63998C23.306 4.8563 23.1525 3.60033 22.9144 1.93391Z" fill="white" stroke="black" stroke-width="1.5"/>
</svg>
