<svg width="25" height="32" viewBox="0 0 25 32" fill="none" xmlns="http://www.w3.org/2000/svg">
<path d="M7.72999 7.91999C7.72999 7.63519 7.80026 7.42852 8.00797 7.18493C8.22341 6.97545 8.42064 6.89399 8.65999 6.89399H16.34C16.5218 6.89399 16.7194 6.9664 16.9444 7.18531C17.1899 7.47109 17.27 7.68242 17.27 7.91999V11.664C17.27 11.9835 17.1783 12.1921 17.0628 12.3323C16.9492 12.4642 16.88 12.5165 16.8464 12.5363C16.8389 12.5408 16.8339 12.5431 16.8313 12.5443L16.8285 12.5454L16.8279 12.5456C16.8279 12.5456 16.8278 12.5456 16.8275 12.5456C16.8271 12.5457 16.8261 12.5458 16.8242 12.5459C16.8231 12.546 16.8217 12.546 16.82 12.546H9.23599H8.48599V13.296V17.904V18.654H9.23599H16.8C16.8056 18.6568 16.8139 18.6615 16.8253 18.6687C16.8774 18.7019 16.9489 18.7608 17.0587 18.8679C17.1992 19.0803 17.27 19.2995 17.27 19.536V23.28C17.27 23.5481 17.1665 23.7928 16.9617 23.9977L16.944 24.0153L16.9276 24.0341C16.7436 24.2443 16.5708 24.306 16.34 24.306H8.65999C8.36834 24.306 8.2006 24.2355 8.02443 24.0341L8.00798 24.0153L7.99032 23.9977C7.82207 23.8294 7.72999 23.603 7.72999 23.28V21.072V20.322H6.97999H2.17999H1.42999V21.072V23.04C1.42999 25.0998 2.12582 26.8336 3.57464 28.2313C4.99202 29.6458 6.82946 30.27 8.99599 30.27H16.004C18.1314 30.27 19.9614 29.6411 21.4202 28.2362L21.4253 28.2313L21.4303 28.2263C22.8161 26.8405 23.57 25.1149 23.57 23.04V19.824C23.57 18.2522 23.0618 16.8531 22.1162 15.6077C23.0664 14.3885 23.57 12.9824 23.57 11.376V8.15999C23.57 6.13008 22.8139 4.40528 21.4303 3.02166L21.4253 3.01666L21.4202 3.01175C19.9708 1.61597 18.1461 0.929993 16.004 0.929993H8.99599C6.81442 0.929993 4.98301 1.61105 3.57468 3.01665C2.12791 4.41231 1.42999 6.14504 1.42999 8.15999V10.512V11.262H2.17999H6.97999H7.72999V10.512V7.91999Z" fill="white" stroke="black" stroke-width="1.5"/>
</svg>
