<svg width="25" height="32" viewBox="0 0 25 32" fill="none" xmlns="http://www.w3.org/2000/svg">
<path d="M21.4543 3.01364L21.4441 3.00345L21.4336 2.99365C19.9876 1.65475 18.1689 0.969971 16.028 0.969971H8.97201C6.79043 0.969971 4.95902 1.65103 3.55069 3.05663C2.10392 4.45229 1.40601 6.18502 1.40601 8.19997V11.416C1.40601 13.5232 2.10142 15.2597 3.55577 16.6602C5.01464 18.065 6.84465 18.694 8.97201 18.694H17.2885C17.2262 20.1971 16.6393 21.4966 15.5074 22.5881L15.5073 22.588L15.4977 22.5976C14.2977 23.7977 12.9059 24.346 11.276 24.346H7.62801H6.87801V25.096V29.56V30.31H7.62801H11.42C14.7739 30.31 17.6553 29.1839 20.0115 26.8292C22.3707 24.5197 23.594 21.5393 23.594 17.992V13.336V8.19997C23.594 6.12503 22.8401 4.39942 21.4543 3.01364ZM17.294 7.95997V12.682H8.63601C8.34435 12.682 8.17661 12.6114 8.00044 12.4101L7.98399 12.3913L7.96634 12.3736C7.78405 12.1914 7.70601 12.0043 7.70601 11.704V7.95997C7.70601 7.67517 7.77627 7.4685 7.98398 7.2249C8.19942 7.01543 8.39665 6.93397 8.63601 6.93397H16.364C16.5458 6.93397 16.7434 7.00638 16.9684 7.22529C17.214 7.51107 17.294 7.7224 17.294 7.95997Z" fill="white" stroke="black" stroke-width="1.5"/>
</svg>
