<svg width="9" height="12" viewBox="0 0 9 12" fill="none" xmlns="http://www.w3.org/2000/svg">
<path d="M8.14009 6.78653V4.97554V2.97785C8.14009 2.24972 7.87871 1.65228 7.39329 1.16686C6.8892 0.700108 6.25442 0.457397 5.48895 0.457397H2.74446C1.96032 0.457397 1.32554 0.700108 0.840123 1.18553C0.336033 1.67095 0.0933228 2.26839 0.0933228 2.97785V4.22874C0.0933228 4.97554 0.336033 5.57298 0.840123 6.0584C1.34421 6.54382 1.97899 6.76786 2.74446 6.76786H6.27309V6.95456C6.27309 7.66402 6.01171 8.28013 5.48895 8.78422C4.96619 9.30698 4.35008 9.54969 3.64062 9.54969H2.2217V11.286H3.69663C4.92885 11.286 5.97437 10.8753 6.83319 10.0164C7.69201 9.17629 8.14009 8.09343 8.14009 6.78653ZM6.27309 5.01288H2.61377C2.42707 5.01288 2.27771 4.95687 2.14702 4.80751C2.01633 4.67682 1.96032 4.52746 1.96032 4.34076V2.8845C1.96032 2.6978 2.01633 2.54844 2.14702 2.39908C2.27771 2.26839 2.42707 2.19371 2.61377 2.19371H5.61964C5.78767 2.19371 5.93703 2.26839 6.06772 2.39908C6.19841 2.54844 6.27309 2.6978 6.27309 2.8845V5.01288Z" fill="black"/>
</svg>
