<svg width="9" height="12" viewBox="0 0 9 12" fill="none" xmlns="http://www.w3.org/2000/svg">
<path d="M8.02811 2.20042C8.02811 1.92037 7.9721 1.45362 7.87875 0.800171H0.205383V2.53648H5.97441C5.97441 2.77919 5.82505 3.05924 5.56367 3.35796C5.30229 3.65668 4.96623 3.97407 4.59283 4.31013C4.20076 4.64619 3.80869 5.00092 3.43529 5.37432C3.06189 5.74772 2.72583 6.1958 2.46445 6.69989C2.20307 7.20398 2.07238 7.72674 2.07238 8.2495V11.6288H4.01406V8.19349C4.01406 7.82009 4.14475 7.42802 4.44347 7.01728C4.66751 6.69989 5.15293 6.1958 5.93707 5.48634C6.38515 5.0756 6.72121 4.75821 6.94525 4.5155C7.16929 4.27279 7.412 3.93673 7.65471 3.48865C7.89742 3.05924 8.02811 2.62983 8.02811 2.20042Z" fill="black"/>
</svg>
