<svg width="9" height="12" viewBox="0 0 9 12" fill="none" xmlns="http://www.w3.org/2000/svg">
<path d="M8.23347 8.93694V7.68604C8.23347 7.0886 8.00943 6.52851 7.59869 6.04309C8.00943 5.55767 8.23347 5.01623 8.23347 4.40012V3.14923C8.23347 2.43977 7.97209 1.84233 7.48667 1.35691C6.98258 0.871495 6.3478 0.628784 5.58233 0.628784H2.65114C1.867 0.628784 1.23222 0.871495 0.7468 1.35691C0.24271 1.84233 0 2.43977 0 3.14923V4.40012C0 5.0349 0.20537 5.57633 0.65345 6.04309C0.20537 6.52851 0 7.06993 0 7.68604V8.93694C0 9.66507 0.24271 10.2625 0.7468 10.7479C1.23222 11.2333 1.867 11.4574 2.65114 11.4574H5.58233C6.3478 11.4574 6.98258 11.2333 7.48667 10.7479C7.97209 10.2625 8.23347 9.66507 8.23347 8.93694ZM6.36647 4.51215C6.36647 4.69884 6.31046 4.84821 6.21711 4.96023C6.10509 5.09092 6.01174 5.14692 5.89972 5.14692H2.33375C2.22173 5.14692 2.10971 5.09092 2.01636 4.96023C1.90434 4.84821 1.867 4.69884 1.867 4.51215V3.05588C1.867 2.86919 1.92301 2.71982 2.0537 2.57046C2.18439 2.43977 2.33375 2.36509 2.52045 2.36509H5.71302C5.88105 2.36509 6.03041 2.43977 6.1611 2.57046C6.29179 2.71982 6.36647 2.86919 6.36647 3.05588V4.51215ZM6.36647 9.03028C6.36647 9.21698 6.29179 9.38501 6.1611 9.51571C6.03041 9.66507 5.88105 9.72108 5.71302 9.72108H2.52045C2.33375 9.72108 2.18439 9.66507 2.0537 9.51571C1.92301 9.38501 1.867 9.21698 1.867 9.03028V7.57403C1.867 7.406 1.90434 7.25664 2.01636 7.12595C2.10971 7.01393 2.22173 6.93925 2.33375 6.93925H5.89972C6.01174 6.93925 6.10509 7.01393 6.21711 7.12595C6.31046 7.25664 6.36647 7.406 6.36647 7.57403V9.03028Z" fill="black"/>
</svg>
