<svg width="9" height="11" viewBox="0 0 9 11" fill="none" xmlns="http://www.w3.org/2000/svg">
<path d="M8.17748 8.45116V6.32278C8.17748 5.57598 7.89743 4.9412 7.356 4.41844C6.7959 3.89568 6.12378 3.65297 5.32097 3.65297L2.18441 3.72765L2.25909 1.87932H7.63605V0.143005H0.46677L0.31741 5.46396L5.58235 5.38928C5.76905 5.38928 5.93708 5.48263 6.08644 5.63199C6.2358 5.80002 6.31048 6.02406 6.31048 6.28544V8.54451C6.31048 8.73121 6.2358 8.89924 6.10511 9.02993C5.97442 9.17929 5.82506 9.2353 5.65703 9.2353H2.57648C2.38978 9.2353 2.24042 9.17929 2.10973 9.02993C1.97904 8.89924 1.92303 8.73121 1.92303 8.54451V7.68569H0.0560303V8.45116C0.0560303 9.17929 0.29874 9.77673 0.80283 10.2621C1.28825 10.7476 1.92303 10.9716 2.70717 10.9716H5.52634C6.29181 10.9716 6.92659 10.7476 7.43068 10.2621C7.9161 9.77673 8.17748 9.17929 8.17748 8.45116Z" fill="black"/>
</svg>
