<svg width="25" height="32" viewBox="0 0 25 32" fill="none" xmlns="http://www.w3.org/2000/svg">
<path d="M21.5743 3.30267L21.5693 3.29767L21.5643 3.29276C20.1418 1.92298 18.3511 1.25 16.25 1.25H8.91802C6.77844 1.25 4.98103 1.91806 3.5987 3.29766C2.17894 4.66732 1.49402 6.36805 1.49402 8.345V22.915C1.49402 24.9358 2.17684 26.6376 3.59867 28.0093C4.99004 29.3978 6.79348 30.01 8.91802 30.01H16.25C18.3364 30.01 20.1324 29.3931 21.5643 28.0142L21.5693 28.0093L21.5744 28.0043C22.9341 26.6446 23.674 24.9509 23.674 22.915V8.345C23.674 6.35309 22.932 4.66029 21.5743 3.30267ZM17.1767 23.8417L17.159 23.8593L17.1426 23.8781C16.9657 24.0803 16.8009 24.139 16.579 24.139H8.58902C8.30737 24.139 8.14763 24.0715 7.97845 23.8781L7.96201 23.8593L7.94435 23.8417C7.78309 23.6804 7.69402 23.463 7.69402 23.15V8.11C7.69402 7.83518 7.76131 7.63647 7.96199 7.40094C8.17035 7.19853 8.3596 7.121 8.58902 7.121H16.579C16.7519 7.121 16.9415 7.1895 17.1595 7.40134C17.3979 7.67901 17.474 7.88236 17.474 8.11V23.15C17.474 23.4081 17.3745 23.6439 17.1767 23.8417ZM15.4173 13.0317L15.388 13.0023L15.3555 12.9763C15.0389 12.7231 14.5962 12.483 14.041 12.483H11.268C10.7077 12.483 10.2465 12.6918 9.92076 13.0032C9.48502 13.3708 9.34302 13.885 9.34302 14.314V16.993C9.34302 17.4495 9.47449 17.9748 9.92163 18.3515C10.2964 18.707 10.7893 18.824 11.268 18.824H14.041C14.5234 18.824 14.9749 18.6822 15.3555 18.3777L15.388 18.3517L15.4173 18.3223C15.7324 18.0073 15.966 17.5394 15.966 16.993V14.314C15.966 13.7979 15.719 13.3333 15.4173 13.0317Z" fill="white" stroke="black" stroke-width="1.5"/>
</svg>
