<svg width="25" height="32" viewBox="0 0 25 32" fill="none" xmlns="http://www.w3.org/2000/svg">
<path d="M21.6943 3.22168L21.6893 3.21667L21.6842 3.21177C20.2348 1.81598 18.4101 1.13 16.268 1.13H8.73202C6.55044 1.13 4.71903 1.81106 3.3107 3.21666C1.86393 4.61232 1.16602 6.34505 1.16602 8.36001V11.576C1.16602 13.1677 1.62415 14.578 2.60618 15.8079C1.62855 17.0641 1.16602 18.4664 1.16602 20.024V23.24C1.16602 25.2998 1.86184 27.0336 3.31067 28.4313C4.72804 29.8458 6.56548 30.47 8.73202 30.47H16.268C18.3954 30.47 20.2254 29.8411 21.6842 28.4362L21.6893 28.4313L21.6943 28.4263C23.0801 27.0406 23.834 25.315 23.834 23.24V20.024C23.834 18.4907 23.3235 17.0567 22.4066 15.8009C23.322 14.5552 23.834 13.154 23.834 11.576V8.36001C23.834 6.33009 23.078 4.6053 21.6943 3.22168ZM7.71032 12.5801L7.67424 12.5296L7.63034 12.4857C7.5442 12.3995 7.46602 12.2527 7.46602 11.864V8.12001C7.46602 7.8352 7.53628 7.62853 7.74399 7.38494C7.95943 7.17546 8.15666 7.09401 8.39602 7.09401H16.604C16.7858 7.09401 16.9834 7.16641 17.2084 7.38532C17.454 7.6711 17.534 7.88243 17.534 8.12001V11.864C17.534 12.1835 17.4423 12.3921 17.3269 12.5322C17.2132 12.6642 17.144 12.7165 17.1105 12.7363C17.1029 12.7408 17.0979 12.7431 17.0953 12.7443L17.0925 12.7454L17.0919 12.7456C17.0919 12.7456 17.0918 12.7456 17.0915 12.7457C17.0909 12.7457 17.0886 12.746 17.084 12.746H7.91602C7.90144 12.746 7.88456 12.7435 7.85906 12.7291C7.83109 12.7133 7.77733 12.6739 7.71032 12.5801ZM17.2257 24.1977L17.208 24.2153L17.1916 24.2341C17.0077 24.4443 16.8349 24.506 16.604 24.506H8.39602C8.10437 24.506 7.93662 24.4355 7.76045 24.2341L7.744 24.2153L7.72635 24.1977C7.55809 24.0294 7.46602 23.803 7.46602 23.48V19.736C7.46602 19.4244 7.53116 19.2334 7.66946 19.0721L7.66951 19.0721L7.67618 19.0641C7.75675 18.9675 7.82833 18.9081 7.87998 18.8767C7.90413 18.862 7.91917 18.8561 7.92562 18.854H17.064C17.0696 18.8568 17.0779 18.8615 17.0894 18.8688C17.1414 18.9019 17.2129 18.9608 17.3227 19.068C17.4632 19.2803 17.534 19.4995 17.534 19.736V23.48C17.534 23.7481 17.4305 23.9929 17.2257 24.1977Z" fill="white" stroke="black" stroke-width="1.5"/>
</svg>
