<svg width="25" height="32" viewBox="0 0 25 32" fill="none" xmlns="http://www.w3.org/2000/svg">
<path d="M22.628 30.43H23.378V29.68V25.216V24.466H22.628H8.61014C8.78475 24.1632 9.03673 23.836 9.38234 23.4904C10.0971 22.7756 11.0058 22.0909 12.074 21.4407L12.0804 21.4368L12.0867 21.4328C12.4786 21.1834 12.9012 20.9208 13.3432 20.6461C14.0572 20.2025 14.8218 19.7273 15.5898 19.2254C16.8531 18.4476 18.0661 17.6226 19.1331 16.8466C20.2634 16.0246 21.2386 14.9977 22.0082 13.8177L22.0083 13.8178L22.0128 13.8107C22.7483 12.6549 23.186 11.3652 23.186 10V8.08003C23.186 6.05144 22.4289 4.30215 20.9081 2.99858C19.4163 1.71986 17.6067 1.09003 15.524 1.09003H9.09201C6.93706 1.09003 5.10444 1.83325 3.70377 3.2878L3.70368 3.28771L3.69441 3.29769C2.31652 4.78158 1.62201 6.54832 1.62201 8.60803V10.288V11.038H2.37201H7.26801H8.01801V10.288V8.17603C8.01801 7.89122 8.08827 7.68456 8.29598 7.44096C8.51142 7.23149 8.70865 7.15003 8.94801 7.15003H15.86C16.0418 7.15003 16.2394 7.22243 16.4644 7.44134C16.71 7.72712 16.79 7.93845 16.79 8.17603V9.90403C16.79 10.3219 16.4912 10.9451 15.4811 11.7716C14.4495 12.6156 13.2343 13.5033 11.7874 14.3434C10.2793 15.2191 8.77583 16.1894 7.27937 17.2031C5.72091 18.2588 4.41043 19.5187 3.30321 21.0285C2.1533 22.5966 1.62201 24.2878 1.62201 26.08V29.68V30.43H2.37201H22.628Z" fill="white" stroke="black" stroke-width="1.5"/>
</svg>
