<svg width="25" height="32" viewBox="0 0 25 32" fill="none" xmlns="http://www.w3.org/2000/svg">
<path d="M17.42 7.41401H18.17V6.66401V2.20001V1.45001H17.42H13.628C10.2687 1.45001 7.34305 2.62747 4.99151 4.92789L4.99148 4.92786L4.98565 4.93368C2.6278 7.29153 1.45398 10.2225 1.45398 13.768V18.424V23.56C1.45398 25.6616 2.14618 27.4041 3.60903 28.7613C5.06703 30.1626 6.89519 30.79 9.01998 30.79H15.98C18.1073 30.79 19.9373 30.1611 21.3962 28.7563L21.4013 28.7513L21.4063 28.7463C22.7921 27.3606 23.546 25.635 23.546 23.56V20.344C23.546 18.2672 22.7903 16.5365 21.3482 15.1478C19.9006 13.7538 18.0769 13.066 15.98 13.066H7.75954C7.82157 11.5762 8.40289 10.3117 9.54549 9.16717C10.7574 8.00062 12.1562 7.41401 13.772 7.41401H17.42ZM16.9377 24.5177L16.92 24.5353L16.9035 24.5541C16.7196 24.7643 16.5468 24.826 16.316 24.826H8.68398C8.39233 24.826 8.22459 24.7555 8.04841 24.5541L8.03197 24.5353L8.01431 24.5177C7.84605 24.3494 7.75398 24.123 7.75398 23.8V19.078H16.316C16.5024 19.078 16.7055 19.1542 16.9377 19.3863C17.16 19.6087 17.246 19.8101 17.246 20.056V23.8C17.246 24.0681 17.1425 24.3129 16.9377 24.5177Z" fill="white" stroke="black" stroke-width="1.5"/>
</svg>
