<svg width="336" height="96" viewBox="0 0 336 96" fill="none" xmlns="http://www.w3.org/2000/svg">
<g clip-path="url(#clip0_402_10765)">
<rect width="336" height="120" fill="#111111"/>
<g clip-path="url(#clip1_402_10765)">
<rect x="-1.52588e-05" y="-1.75" width="56" height="14" fill="black"/>
<rect x="6.81281" y="-3.0625" width="1.3125" height="22.0091" transform="rotate(45 6.81281 -3.0625)" fill="#191919"/>
<rect x="20.813" y="-3.0625" width="1.3125" height="22.0091" transform="rotate(45 20.813 -3.0625)" fill="#191919"/>
<rect x="34.8133" y="-3.0625" width="1.3125" height="22.0091" transform="rotate(45 34.8133 -3.0625)" fill="#191919"/>
<rect x="48.8135" y="-3.0625" width="1.3125" height="22.0091" transform="rotate(45 48.8135 -3.0625)" fill="#191919"/>
<rect x="62.8138" y="-3.0625" width="1.3125" height="22.0091" transform="rotate(45 62.8138 -3.0625)" fill="#191919"/>
</g>
<g clip-path="url(#clip2_402_10765)">
<rect x="56" y="-1.75" width="56" height="14" fill="black"/>
<rect x="62.8128" y="-3.0625" width="1.3125" height="22.0091" transform="rotate(45 62.8128 -3.0625)" fill="#191919"/>
<rect x="76.813" y="-3.0625" width="1.3125" height="22.0091" transform="rotate(45 76.813 -3.0625)" fill="#191919"/>
<rect x="90.8133" y="-3.0625" width="1.3125" height="22.0091" transform="rotate(45 90.8133 -3.0625)" fill="#191919"/>
<rect x="104.814" y="-3.0625" width="1.3125" height="22.0091" transform="rotate(45 104.814 -3.0625)" fill="#191919"/>
<rect x="118.814" y="-3.0625" width="1.3125" height="22.0091" transform="rotate(45 118.814 -3.0625)" fill="#191919"/>
</g>
<g clip-path="url(#clip3_402_10765)">
<rect x="112" y="-1.75" width="56" height="14" fill="black"/>
<rect x="118.813" y="-3.0625" width="1.3125" height="22.0091" transform="rotate(45 118.813 -3.0625)" fill="#191919"/>
<rect x="132.813" y="-3.0625" width="1.3125" height="22.0091" transform="rotate(45 132.813 -3.0625)" fill="#191919"/>
<rect x="146.813" y="-3.0625" width="1.3125" height="22.0091" transform="rotate(45 146.813 -3.0625)" fill="#191919"/>
<rect x="160.814" y="-3.0625" width="1.3125" height="22.0091" transform="rotate(45 160.814 -3.0625)" fill="#191919"/>
<rect x="174.814" y="-3.0625" width="1.3125" height="22.0091" transform="rotate(45 174.814 -3.0625)" fill="#191919"/>
</g>
<g clip-path="url(#clip4_402_10765)">
<rect x="168" y="-1.75" width="56" height="14" fill="black"/>
<rect x="174.813" y="-3.0625" width="1.3125" height="22.0091" transform="rotate(45 174.813 -3.0625)" fill="#191919"/>
<rect x="188.813" y="-3.0625" width="1.3125" height="22.0091" transform="rotate(45 188.813 -3.0625)" fill="#191919"/>
<rect x="202.813" y="-3.0625" width="1.3125" height="22.0091" transform="rotate(45 202.813 -3.0625)" fill="#191919"/>
<rect x="216.814" y="-3.0625" width="1.3125" height="22.0091" transform="rotate(45 216.814 -3.0625)" fill="#191919"/>
<rect x="230.814" y="-3.0625" width="1.3125" height="22.0091" transform="rotate(45 230.814 -3.0625)" fill="#191919"/>
</g>
<g clip-path="url(#clip5_402_10765)">
<rect x="224" y="-1.75" width="56" height="14" fill="black"/>
<rect x="230.813" y="-3.0625" width="1.3125" height="22.0091" transform="rotate(45 230.813 -3.0625)" fill="#191919"/>
<rect x="244.813" y="-3.0625" width="1.3125" height="22.0091" transform="rotate(45 244.813 -3.0625)" fill="#191919"/>
<rect x="258.813" y="-3.0625" width="1.3125" height="22.0091" transform="rotate(45 258.813 -3.0625)" fill="#191919"/>
<rect x="272.814" y="-3.0625" width="1.3125" height="22.0091" transform="rotate(45 272.814 -3.0625)" fill="#191919"/>
<rect x="286.814" y="-3.0625" width="1.3125" height="22.0091" transform="rotate(45 286.814 -3.0625)" fill="#191919"/>
</g>
<g clip-path="url(#clip6_402_10765)">
<rect x="280" y="-1.75" width="56" height="14" fill="black"/>
<rect x="286.813" y="-3.0625" width="1.3125" height="22.0091" transform="rotate(45 286.813 -3.0625)" fill="#191919"/>
<rect x="300.813" y="-3.0625" width="1.3125" height="22.0091" transform="rotate(45 300.813 -3.0625)" fill="#191919"/>
<rect x="314.813" y="-3.0625" width="1.3125" height="22.0091" transform="rotate(45 314.813 -3.0625)" fill="#191919"/>
<rect x="328.813" y="-3.0625" width="1.3125" height="22.0091" transform="rotate(45 328.813 -3.0625)" fill="#191919"/>
<rect x="342.814" y="-3.0625" width="1.3125" height="22.0091" transform="rotate(45 342.814 -3.0625)" fill="#191919"/>
</g>
</g>
<defs>
<clipPath id="clip0_402_10765">
<rect width="336" height="96" fill="white"/>
</clipPath>
<clipPath id="clip1_402_10765">
<rect width="56" height="8" fill="white"/>
</clipPath>
<clipPath id="clip2_402_10765">
<rect width="56" height="8" fill="white" transform="translate(56)"/>
</clipPath>
<clipPath id="clip3_402_10765">
<rect width="56" height="8" fill="white" transform="translate(112)"/>
</clipPath>
<clipPath id="clip4_402_10765">
<rect width="56" height="8" fill="white" transform="translate(168)"/>
</clipPath>
<clipPath id="clip5_402_10765">
<rect width="56" height="8" fill="white" transform="translate(224)"/>
</clipPath>
<clipPath id="clip6_402_10765">
<rect width="56" height="8" fill="white" transform="translate(280)"/>
</clipPath>
</defs>
</svg>
