<svg width="44" height="44" viewBox="0 0 44 44" fill="none" xmlns="http://www.w3.org/2000/svg">
<circle cx="22.5" cy="22.5" r="13.5" fill="white"/>
<g filter="url(#filter0_ii_5_74)">
<path d="M44 23.0472C44 19.7369 42.1659 16.8667 39.4995 15.5049C39.8222 14.5933 39.9982 13.6085 39.9982 12.5715C39.9982 7.94053 36.4151 4.19467 31.999 4.19467C31.0141 4.19467 30.0711 4.37067 29.1991 4.71827C27.9048 1.91693 25.1651 0 22.0015 0C18.8379 0 16.1011 1.92133 14.8001 4.71387C13.9304 4.36847 12.9851 4.19027 12.001 4.19027C7.57973 4.19027 4.0018 7.94053 4.0018 12.5715C4.0018 13.6063 4.1756 14.5911 4.49827 15.5049C1.83333 16.8667 0 19.7325 0 23.0472C0 26.18 1.63827 28.9102 4.06853 30.3512C4.02673 30.7076 4.0018 31.064 4.0018 31.4285C4.0018 36.0587 7.57973 39.8097 12.001 39.8097C12.9851 39.8097 13.9289 39.6293 14.7972 39.2854C16.0967 42.0809 18.8327 44 21.9985 44C25.1665 44 27.9026 42.0809 29.1991 39.2854C30.0689 39.6271 31.0119 39.8053 31.999 39.8053C36.4195 39.8053 39.9982 36.0543 39.9982 31.4241C39.9982 31.0596 39.9733 30.7032 39.9293 30.349C42.3559 28.9102 44 26.18 44 23.0494V23.0472ZM30.1385 16.0622L21.0584 29.6809C20.7548 30.1356 20.2576 30.3805 19.7487 30.3805C19.4495 30.3805 19.1451 30.2969 18.8767 30.1165L18.6362 29.92L13.5762 24.86C12.9624 24.2462 12.9624 23.2503 13.5762 22.6387C14.19 22.0271 15.1851 22.0227 15.7975 22.6387L19.5059 26.3413L27.5198 14.3147C28.0016 13.5916 28.9777 13.4009 29.6978 13.8805C30.4231 14.3631 30.6203 15.3391 30.1385 16.06V16.0622Z" fill="#FFB141"/>
</g>
<path d="M38.5569 15.1712L38.2645 15.997L39.0447 16.3954C41.3727 17.5844 43 20.1083 43 23.0472V23.0494C43 25.8267 41.5423 28.23 39.4193 29.4888L38.8562 29.8227L38.9369 30.4723C38.9764 30.7906 38.9982 31.1056 38.9982 31.4241C38.9982 35.5466 35.8237 38.8053 31.999 38.8053C31.1333 38.8053 30.3146 38.6493 29.5648 38.3547L28.6882 38.0102L28.292 38.8647C27.1455 41.3366 24.7454 43 21.9985 43C19.2541 43 16.8536 41.3368 15.704 38.8639L15.3062 38.0082L14.4289 38.3557C13.6808 38.652 12.8622 38.8097 12.001 38.8097C8.17564 38.8097 5.0018 35.5511 5.0018 31.4285C5.0018 31.1099 5.02357 30.793 5.06173 30.4677L5.13741 29.8224L4.57856 29.491C2.45293 28.2307 1 25.8279 1 23.0472C1 20.104 2.62656 17.5843 4.9533 16.3953L5.73261 15.9971L5.4412 15.1719C5.15644 14.3655 5.0018 13.4933 5.0018 12.5715C5.0018 8.44822 8.17558 5.19027 12.001 5.19027C12.8639 5.19027 13.6834 5.34636 14.431 5.64326L15.3081 5.99157L15.7066 5.13615C16.8578 2.66503 19.2597 1 22.0015 1C24.7444 1 27.1473 2.66153 28.2913 5.1377L28.6889 5.9982L29.5694 5.64717C30.3175 5.34897 31.1342 5.19467 31.999 5.19467C35.8204 5.19467 38.9982 8.44935 38.9982 12.5715C38.9982 13.4942 38.8418 14.3663 38.5569 15.1712ZM30.9706 16.6169L31.1385 16.365V16.3242C31.7035 15.1813 31.3395 13.772 30.2521 13.0482C29.0758 12.2648 27.4779 12.5741 26.6876 13.7602L19.3498 24.7723L16.5067 21.9337C16.5062 21.9333 16.5057 21.9328 16.5052 21.9323C15.4981 20.9207 13.8702 20.9341 12.8704 21.9304C11.8636 22.9335 11.8655 24.5635 12.8691 25.5671L17.9291 30.6271L17.9646 30.6626L18.0035 30.6944L18.244 30.8909L18.2802 30.9204L18.3189 30.9465C18.762 31.2443 19.2628 31.3805 19.7487 31.3805C20.5774 31.3805 21.3931 30.9804 21.89 30.2363L21.8904 30.2357L30.9706 16.6169Z" stroke="#B9812F" stroke-width="2"/>
<defs>
<filter id="filter0_ii_5_74" x="0" y="0" width="44" height="44" filterUnits="userSpaceOnUse" color-interpolation-filters="sRGB">
<feFlood flood-opacity="0" result="BackgroundImageFix"/>
<feBlend mode="normal" in="SourceGraphic" in2="BackgroundImageFix" result="shape"/>
<feColorMatrix in="SourceAlpha" type="matrix" values="0 0 0 0 0 0 0 0 0 0 0 0 0 0 0 0 0 0 127 0" result="hardAlpha"/>
<feOffset dy="4"/>
<feComposite in2="hardAlpha" operator="arithmetic" k2="-1" k3="1"/>
<feColorMatrix type="matrix" values="0 0 0 0 1 0 0 0 0 0.858824 0 0 0 0 0.372549 0 0 0 1 0"/>
<feBlend mode="normal" in2="shape" result="effect1_innerShadow_5_74"/>
<feColorMatrix in="SourceAlpha" type="matrix" values="0 0 0 0 0 0 0 0 0 0 0 0 0 0 0 0 0 0 127 0" result="hardAlpha"/>
<feOffset dy="-4"/>
<feComposite in2="hardAlpha" operator="arithmetic" k2="-1" k3="1"/>
<feColorMatrix type="matrix" values="0 0 0 0 0.917647 0 0 0 0 0.635294 0 0 0 0 0.235294 0 0 0 1 0"/>
<feBlend mode="normal" in2="effect1_innerShadow_5_74" result="effect2_innerShadow_5_74"/>
</filter>
</defs>
</svg>
