<svg width="115" height="70" viewBox="0 0 115 70" fill="none" xmlns="http://www.w3.org/2000/svg">
<rect x="18" y="5" width="79" height="60" rx="12" fill="white"/>
<path d="M60 36.428C60 31.914 57.499 28 53.863 26.143C54.303 24.9 54.543 23.557 54.543 22.143C54.543 15.828 49.657 10.72 43.635 10.72C42.292 10.72 41.006 10.96 39.817 11.434C38.052 7.614 34.316 5 30.002 5C25.688 5 21.956 7.62 20.182 11.428C18.996 10.957 17.707 10.714 16.365 10.714C10.336 10.714 5.457 15.828 5.457 22.143C5.457 23.554 5.694 24.897 6.134 26.143C2.5 28 0 31.908 0 36.428C0 40.7 2.234 44.423 5.548 46.388C5.491 46.874 5.457 47.36 5.457 47.857C5.457 54.171 10.336 59.286 16.365 59.286C17.707 59.286 18.994 59.04 20.178 58.571C21.95 62.383 25.681 65 29.998 65C34.318 65 38.049 62.383 39.817 58.571C41.003 59.037 42.289 59.28 43.635 59.28C49.663 59.28 54.543 54.165 54.543 47.851C54.543 47.354 54.509 46.868 54.449 46.385C57.758 44.423 60 40.7 60 36.431V36.428Z" fill="white"/>
<path d="M115 36.428C115 31.914 112.499 28 108.863 26.143C109.303 24.9 109.543 23.557 109.543 22.143C109.543 15.828 104.657 10.72 98.635 10.72C97.292 10.72 96.006 10.96 94.817 11.434C93.052 7.614 89.316 5 85.002 5C80.688 5 76.956 7.62 75.182 11.428C73.996 10.957 72.707 10.714 71.365 10.714C65.336 10.714 60.457 15.828 60.457 22.143C60.457 23.554 60.694 24.897 61.134 26.143C57.5 28 55 31.908 55 36.428C55 40.7 57.234 44.423 60.548 46.388C60.491 46.874 60.457 47.36 60.457 47.857C60.457 54.171 65.336 59.286 71.365 59.286C72.707 59.286 73.994 59.04 75.178 58.571C76.95 62.383 80.681 65 84.998 65C89.318 65 93.049 62.383 94.817 58.571C96.003 59.037 97.289 59.28 98.635 59.28C104.663 59.28 109.543 54.165 109.543 47.851C109.543 47.354 109.509 46.868 109.449 46.385C112.758 44.423 115 40.7 115 36.431V36.428Z" fill="white"/>
<path d="M71 35L51.5 46.2583L51.5 23.7417L71 35Z" fill="black"/>
</svg>
