<svg width="236" height="280" viewBox="0 0 236 280" fill="none" xmlns="http://www.w3.org/2000/svg">
<rect x="6" y="72" width="224" height="113" fill="white"/>
<mask id="path-2-outside-1_365_10551" maskUnits="userSpaceOnUse" x="28.5399" y="13.64" width="179" height="31" fill="black">
<rect fill="white" x="28.5399" y="13.64" width="179" height="31"/>
<path d="M50.0199 35.33V26.846H40.7379V30.752H45.7359V35.498C45.7359 35.918 45.5679 36.296 45.2739 36.59C44.9799 36.926 44.6439 37.052 44.2659 37.052H37.2939C36.8739 37.052 36.5379 36.926 36.2439 36.59C35.9499 36.296 35.8239 35.918 35.8239 35.498V22.016C35.8239 21.596 35.9499 21.26 36.2439 20.924C36.5379 20.63 36.8739 20.462 37.2939 20.462H44.2659C44.6439 20.462 44.9799 20.63 45.2739 20.924C45.5679 21.26 45.7359 21.596 45.7359 22.016V24.032H50.0199V22.31C50.0199 20.714 49.4319 19.37 48.3399 18.278C47.2059 17.186 45.7779 16.64 44.0559 16.64H37.5039C35.7399 16.64 34.3119 17.186 33.2199 18.278C32.0859 19.37 31.5399 20.714 31.5399 22.31V35.33C31.5399 36.968 32.0859 38.312 33.2199 39.404C34.3119 40.496 35.7399 41 37.5039 41H44.0559C45.7779 41 47.2059 40.496 48.3399 39.404C49.4319 38.312 50.0199 36.968 50.0199 35.33Z"/>
<path d="M71.0035 26.174C71.0035 25.25 70.8775 24.494 70.6675 23.906C70.4155 23.318 69.9955 22.73 69.4075 22.142L63.6115 16.64H59.9155L54.1195 22.142C53.4895 22.73 53.0695 23.318 52.8595 23.906C52.6075 24.494 52.5235 25.25 52.5235 26.174V41H56.7655V33.314H66.7615V41H71.0035V26.174ZM66.7615 29.618H56.7655V26.384C56.7655 25.712 56.9335 25.166 57.3115 24.788L61.7215 20.336L66.2155 24.788C66.5515 25.166 66.7615 25.712 66.7615 26.384V29.618Z"/>
<path d="M93.5831 41V16.64H90.0971L88.5431 18.488C87.4511 19.706 86.4011 20.966 85.3511 22.268C84.2591 23.57 83.7131 24.284 83.6711 24.41L76.9931 16.64H73.5071V41H77.7911V23.612L82.2431 28.736H84.8471L89.2991 23.612V41H93.5831Z"/>
<path d="M111.882 41V37.094H100.29V30.836H109.278V26.846H100.29V20.546H111.882V16.64H96.0903V41H111.882Z"/>
<path d="M144.127 35.33V22.31C144.127 20.714 143.539 19.37 142.447 18.278C141.313 17.186 139.885 16.64 138.163 16.64H130.855C129.091 16.64 127.663 17.186 126.571 18.278C125.437 19.37 124.891 20.714 124.891 22.31V35.33C124.891 36.968 125.437 38.312 126.571 39.404C127.663 40.496 129.091 41 130.855 41H138.163C139.885 41 141.313 40.496 142.447 39.404C143.539 38.312 144.127 36.968 144.127 35.33ZM139.927 35.54C139.927 35.96 139.759 36.338 139.465 36.632C139.171 36.968 138.835 37.094 138.457 37.094H130.561C130.141 37.094 129.805 36.968 129.511 36.632C129.217 36.338 129.091 35.96 129.091 35.54V22.1C129.091 21.68 129.217 21.344 129.511 21.008C129.805 20.714 130.141 20.546 130.561 20.546H138.457C138.835 20.546 139.171 20.714 139.465 21.008C139.759 21.344 139.927 21.68 139.927 22.1V35.54Z"/>
<path d="M165.134 31.34V16.64H160.808V31.172C160.808 31.886 160.598 32.432 160.262 32.768L155.936 37.22L151.526 32.768C151.148 32.432 150.98 31.886 150.98 31.172V16.64H146.654V31.34C146.654 32.978 147.158 34.322 148.25 35.33L154.046 41H157.742L163.538 35.33C164.588 34.322 165.134 32.978 165.134 31.34Z"/>
<path d="M183.717 41V37.094H172.125V30.836H181.113V26.846H172.125V20.546H183.717V16.64H167.925V41H183.717Z"/>
<path d="M204.471 41V32.306C204.471 30.752 203.925 29.576 202.833 28.778C203.925 27.854 204.471 26.552 204.471 24.956V22.31C204.471 20.714 203.883 19.37 202.791 18.278C201.657 17.186 200.229 16.64 198.507 16.64H186.243V41H190.401V30.836H198.465C199.137 30.836 199.557 31.004 199.809 31.256C200.061 31.55 200.187 32.096 200.187 32.852V41H204.471ZM200.187 24.914C200.187 25.67 200.061 26.174 199.809 26.426C199.557 26.678 199.011 26.804 198.255 26.804H190.401V20.336H198.717C199.053 20.336 199.389 20.546 199.725 20.882C200.019 21.218 200.187 21.596 200.187 22.016V24.914Z"/>
</mask>
<path d="M50.0199 35.33V26.846H40.7379V30.752H45.7359V35.498C45.7359 35.918 45.5679 36.296 45.2739 36.59C44.9799 36.926 44.6439 37.052 44.2659 37.052H37.2939C36.8739 37.052 36.5379 36.926 36.2439 36.59C35.9499 36.296 35.8239 35.918 35.8239 35.498V22.016C35.8239 21.596 35.9499 21.26 36.2439 20.924C36.5379 20.63 36.8739 20.462 37.2939 20.462H44.2659C44.6439 20.462 44.9799 20.63 45.2739 20.924C45.5679 21.26 45.7359 21.596 45.7359 22.016V24.032H50.0199V22.31C50.0199 20.714 49.4319 19.37 48.3399 18.278C47.2059 17.186 45.7779 16.64 44.0559 16.64H37.5039C35.7399 16.64 34.3119 17.186 33.2199 18.278C32.0859 19.37 31.5399 20.714 31.5399 22.31V35.33C31.5399 36.968 32.0859 38.312 33.2199 39.404C34.3119 40.496 35.7399 41 37.5039 41H44.0559C45.7779 41 47.2059 40.496 48.3399 39.404C49.4319 38.312 50.0199 36.968 50.0199 35.33Z" fill="white"/>
<path d="M71.0035 26.174C71.0035 25.25 70.8775 24.494 70.6675 23.906C70.4155 23.318 69.9955 22.73 69.4075 22.142L63.6115 16.64H59.9155L54.1195 22.142C53.4895 22.73 53.0695 23.318 52.8595 23.906C52.6075 24.494 52.5235 25.25 52.5235 26.174V41H56.7655V33.314H66.7615V41H71.0035V26.174ZM66.7615 29.618H56.7655V26.384C56.7655 25.712 56.9335 25.166 57.3115 24.788L61.7215 20.336L66.2155 24.788C66.5515 25.166 66.7615 25.712 66.7615 26.384V29.618Z" fill="white"/>
<path d="M93.5831 41V16.64H90.0971L88.5431 18.488C87.4511 19.706 86.4011 20.966 85.3511 22.268C84.2591 23.57 83.7131 24.284 83.6711 24.41L76.9931 16.64H73.5071V41H77.7911V23.612L82.2431 28.736H84.8471L89.2991 23.612V41H93.5831Z" fill="white"/>
<path d="M111.882 41V37.094H100.29V30.836H109.278V26.846H100.29V20.546H111.882V16.64H96.0903V41H111.882Z" fill="white"/>
<path d="M144.127 35.33V22.31C144.127 20.714 143.539 19.37 142.447 18.278C141.313 17.186 139.885 16.64 138.163 16.64H130.855C129.091 16.64 127.663 17.186 126.571 18.278C125.437 19.37 124.891 20.714 124.891 22.31V35.33C124.891 36.968 125.437 38.312 126.571 39.404C127.663 40.496 129.091 41 130.855 41H138.163C139.885 41 141.313 40.496 142.447 39.404C143.539 38.312 144.127 36.968 144.127 35.33ZM139.927 35.54C139.927 35.96 139.759 36.338 139.465 36.632C139.171 36.968 138.835 37.094 138.457 37.094H130.561C130.141 37.094 129.805 36.968 129.511 36.632C129.217 36.338 129.091 35.96 129.091 35.54V22.1C129.091 21.68 129.217 21.344 129.511 21.008C129.805 20.714 130.141 20.546 130.561 20.546H138.457C138.835 20.546 139.171 20.714 139.465 21.008C139.759 21.344 139.927 21.68 139.927 22.1V35.54Z" fill="white"/>
<path d="M165.134 31.34V16.64H160.808V31.172C160.808 31.886 160.598 32.432 160.262 32.768L155.936 37.22L151.526 32.768C151.148 32.432 150.98 31.886 150.98 31.172V16.64H146.654V31.34C146.654 32.978 147.158 34.322 148.25 35.33L154.046 41H157.742L163.538 35.33C164.588 34.322 165.134 32.978 165.134 31.34Z" fill="white"/>
<path d="M183.717 41V37.094H172.125V30.836H181.113V26.846H172.125V20.546H183.717V16.64H167.925V41H183.717Z" fill="white"/>
<path d="M204.471 41V32.306C204.471 30.752 203.925 29.576 202.833 28.778C203.925 27.854 204.471 26.552 204.471 24.956V22.31C204.471 20.714 203.883 19.37 202.791 18.278C201.657 17.186 200.229 16.64 198.507 16.64H186.243V41H190.401V30.836H198.465C199.137 30.836 199.557 31.004 199.809 31.256C200.061 31.55 200.187 32.096 200.187 32.852V41H204.471ZM200.187 24.914C200.187 25.67 200.061 26.174 199.809 26.426C199.557 26.678 199.011 26.804 198.255 26.804H190.401V20.336H198.717C199.053 20.336 199.389 20.546 199.725 20.882C200.019 21.218 200.187 21.596 200.187 22.016V24.914Z" fill="white"/>
<path d="M50.0199 35.33V26.846H40.7379V30.752H45.7359V35.498C45.7359 35.918 45.5679 36.296 45.2739 36.59C44.9799 36.926 44.6439 37.052 44.2659 37.052H37.2939C36.8739 37.052 36.5379 36.926 36.2439 36.59C35.9499 36.296 35.8239 35.918 35.8239 35.498V22.016C35.8239 21.596 35.9499 21.26 36.2439 20.924C36.5379 20.63 36.8739 20.462 37.2939 20.462H44.2659C44.6439 20.462 44.9799 20.63 45.2739 20.924C45.5679 21.26 45.7359 21.596 45.7359 22.016V24.032H50.0199V22.31C50.0199 20.714 49.4319 19.37 48.3399 18.278C47.2059 17.186 45.7779 16.64 44.0559 16.64H37.5039C35.7399 16.64 34.3119 17.186 33.2199 18.278C32.0859 19.37 31.5399 20.714 31.5399 22.31V35.33C31.5399 36.968 32.0859 38.312 33.2199 39.404C34.3119 40.496 35.7399 41 37.5039 41H44.0559C45.7779 41 47.2059 40.496 48.3399 39.404C49.4319 38.312 50.0199 36.968 50.0199 35.33Z" stroke="black" stroke-width="6" mask="url(#path-2-outside-1_365_10551)"/>
<path d="M71.0035 26.174C71.0035 25.25 70.8775 24.494 70.6675 23.906C70.4155 23.318 69.9955 22.73 69.4075 22.142L63.6115 16.64H59.9155L54.1195 22.142C53.4895 22.73 53.0695 23.318 52.8595 23.906C52.6075 24.494 52.5235 25.25 52.5235 26.174V41H56.7655V33.314H66.7615V41H71.0035V26.174ZM66.7615 29.618H56.7655V26.384C56.7655 25.712 56.9335 25.166 57.3115 24.788L61.7215 20.336L66.2155 24.788C66.5515 25.166 66.7615 25.712 66.7615 26.384V29.618Z" stroke="black" stroke-width="6" mask="url(#path-2-outside-1_365_10551)"/>
<path d="M93.5831 41V16.64H90.0971L88.5431 18.488C87.4511 19.706 86.4011 20.966 85.3511 22.268C84.2591 23.57 83.7131 24.284 83.6711 24.41L76.9931 16.64H73.5071V41H77.7911V23.612L82.2431 28.736H84.8471L89.2991 23.612V41H93.5831Z" stroke="black" stroke-width="6" mask="url(#path-2-outside-1_365_10551)"/>
<path d="M111.882 41V37.094H100.29V30.836H109.278V26.846H100.29V20.546H111.882V16.64H96.0903V41H111.882Z" stroke="black" stroke-width="6" mask="url(#path-2-outside-1_365_10551)"/>
<path d="M144.127 35.33V22.31C144.127 20.714 143.539 19.37 142.447 18.278C141.313 17.186 139.885 16.64 138.163 16.64H130.855C129.091 16.64 127.663 17.186 126.571 18.278C125.437 19.37 124.891 20.714 124.891 22.31V35.33C124.891 36.968 125.437 38.312 126.571 39.404C127.663 40.496 129.091 41 130.855 41H138.163C139.885 41 141.313 40.496 142.447 39.404C143.539 38.312 144.127 36.968 144.127 35.33ZM139.927 35.54C139.927 35.96 139.759 36.338 139.465 36.632C139.171 36.968 138.835 37.094 138.457 37.094H130.561C130.141 37.094 129.805 36.968 129.511 36.632C129.217 36.338 129.091 35.96 129.091 35.54V22.1C129.091 21.68 129.217 21.344 129.511 21.008C129.805 20.714 130.141 20.546 130.561 20.546H138.457C138.835 20.546 139.171 20.714 139.465 21.008C139.759 21.344 139.927 21.68 139.927 22.1V35.54Z" stroke="black" stroke-width="6" mask="url(#path-2-outside-1_365_10551)"/>
<path d="M165.134 31.34V16.64H160.808V31.172C160.808 31.886 160.598 32.432 160.262 32.768L155.936 37.22L151.526 32.768C151.148 32.432 150.98 31.886 150.98 31.172V16.64H146.654V31.34C146.654 32.978 147.158 34.322 148.25 35.33L154.046 41H157.742L163.538 35.33C164.588 34.322 165.134 32.978 165.134 31.34Z" stroke="black" stroke-width="6" mask="url(#path-2-outside-1_365_10551)"/>
<path d="M183.717 41V37.094H172.125V30.836H181.113V26.846H172.125V20.546H183.717V16.64H167.925V41H183.717Z" stroke="black" stroke-width="6" mask="url(#path-2-outside-1_365_10551)"/>
<path d="M204.471 41V32.306C204.471 30.752 203.925 29.576 202.833 28.778C203.925 27.854 204.471 26.552 204.471 24.956V22.31C204.471 20.714 203.883 19.37 202.791 18.278C201.657 17.186 200.229 16.64 198.507 16.64H186.243V41H190.401V30.836H198.465C199.137 30.836 199.557 31.004 199.809 31.256C200.061 31.55 200.187 32.096 200.187 32.852V41H204.471ZM200.187 24.914C200.187 25.67 200.061 26.174 199.809 26.426C199.557 26.678 199.011 26.804 198.255 26.804H190.401V20.336H198.717C199.053 20.336 199.389 20.546 199.725 20.882C200.019 21.218 200.187 21.596 200.187 22.016V24.914Z" stroke="black" stroke-width="6" mask="url(#path-2-outside-1_365_10551)"/>
<path d="M46.4124 107V97.72H45.0844L44.4924 98.424C44.0764 98.888 43.6764 99.368 43.2764 99.864C42.8604 100.36 42.6524 100.632 42.6364 100.68L40.0924 97.72H38.7644V107H40.3964V100.376L42.0924 102.328H43.0844L44.7804 100.376V107H46.4124ZM54.9835 107V105.512H50.5675V103.128H53.9915V101.608H50.5675V99.208H54.9835V97.72H48.9675V107H54.9835ZM64.5856 104.84V99.88C64.5856 99.272 64.3616 98.76 63.9456 98.344C63.5136 97.928 62.9696 97.72 62.3136 97.72H57.5456V107H62.3136C62.9696 107 63.5136 106.808 63.9456 106.392C64.3616 105.976 64.5856 105.464 64.5856 104.84ZM62.9536 104.92C62.9536 105.08 62.8896 105.224 62.7776 105.336C62.6656 105.464 62.5376 105.512 62.3936 105.512H59.1456V99.208H62.3936C62.5376 99.208 62.6656 99.272 62.7776 99.384C62.8896 99.512 62.9536 99.64 62.9536 99.8V104.92ZM74.1794 101.352C74.1794 101 74.1314 100.712 74.0514 100.488C73.9554 100.264 73.7954 100.04 73.5714 99.816L71.3634 97.72H69.9554L67.7474 99.816C67.5074 100.04 67.3474 100.264 67.2674 100.488C67.1714 100.712 67.1394 101 67.1394 101.352V107H68.7554V104.072H72.5634V107H74.1794V101.352ZM72.5634 102.664H68.7554V101.432C68.7554 101.176 68.8194 100.968 68.9634 100.824L70.6434 99.128L72.3554 100.824C72.4834 100.968 72.5634 101.176 72.5634 101.432V102.664ZM82.5571 107V105.512H78.3971V97.72H76.7331V107H82.5571Z" fill="black"/>
<path d="M148.128 104.872V103.832C148.128 103.224 147.904 102.712 147.472 102.296C147.04 101.896 146.496 101.688 145.856 101.656C145.696 101.656 145.44 101.672 145.088 101.688C144.736 101.704 144.464 101.704 144.24 101.704C144.016 101.704 143.792 101.672 143.536 101.64C143.28 101.608 143.104 101.544 142.976 101.448C142.848 101.352 142.784 101.208 142.784 101.016V99.8C142.784 99.64 142.832 99.512 142.944 99.384C143.056 99.272 143.184 99.208 143.344 99.208H145.84C145.984 99.208 146.112 99.272 146.224 99.384C146.336 99.512 146.4 99.64 146.4 99.8V100.488H148V99.88C148 99.272 147.776 98.76 147.36 98.344C146.928 97.928 146.384 97.72 145.728 97.72H143.456C142.784 97.72 142.24 97.928 141.824 98.344C141.392 98.76 141.184 99.272 141.184 99.88V100.92C141.184 101.544 141.392 102.056 141.824 102.456C142.24 102.872 142.784 103.08 143.456 103.096C143.616 103.096 143.872 103.096 144.208 103.08C144.544 103.08 144.832 103.08 145.056 103.08C145.28 103.08 145.52 103.096 145.776 103.128C146.016 103.16 146.208 103.24 146.336 103.336C146.464 103.432 146.528 103.576 146.528 103.752V104.952C146.528 105.112 146.464 105.256 146.352 105.368C146.24 105.496 146.112 105.544 145.968 105.544H143.28C143.12 105.544 142.992 105.496 142.88 105.368C142.768 105.256 142.72 105.112 142.72 104.952V104.28H141.12V104.872C141.12 105.496 141.328 106.008 141.76 106.424C142.176 106.84 142.72 107.032 143.392 107.032H145.856C146.512 107.032 147.056 106.84 147.488 106.424C147.904 106.008 148.128 105.496 148.128 104.872ZM157.538 104.84V104.184H155.906V104.904C155.906 105.064 155.842 105.208 155.73 105.32C155.618 105.448 155.49 105.496 155.346 105.496H152.722C152.562 105.496 152.434 105.448 152.322 105.32C152.21 105.208 152.162 105.064 152.162 104.904V99.832C152.162 99.672 152.21 99.544 152.322 99.416C152.434 99.304 152.562 99.24 152.722 99.24H155.346C155.49 99.24 155.618 99.304 155.73 99.416C155.842 99.544 155.906 99.672 155.906 99.832V100.536H157.538V99.976C157.538 99.352 157.314 98.824 156.898 98.376C156.482 97.944 155.938 97.72 155.298 97.72H152.802C152.13 97.72 151.586 97.928 151.17 98.344C150.738 98.76 150.53 99.272 150.53 99.88V104.84C150.53 105.464 150.738 105.976 151.17 106.392C151.586 106.808 152.13 107 152.802 107H155.266C155.922 107 156.466 106.808 156.898 106.392C157.314 105.976 157.538 105.464 157.538 104.84ZM167.421 104.84V99.88C167.421 99.272 167.197 98.76 166.781 98.344C166.349 97.928 165.805 97.72 165.149 97.72H162.365C161.693 97.72 161.149 97.928 160.733 98.344C160.301 98.76 160.093 99.272 160.093 99.88V104.84C160.093 105.464 160.301 105.976 160.733 106.392C161.149 106.808 161.693 107 162.365 107H165.149C165.805 107 166.349 106.808 166.781 106.392C167.197 105.976 167.421 105.464 167.421 104.84ZM165.821 104.92C165.821 105.08 165.757 105.224 165.645 105.336C165.533 105.464 165.405 105.512 165.261 105.512H162.253C162.093 105.512 161.965 105.464 161.853 105.336C161.741 105.224 161.693 105.08 161.693 104.92V99.8C161.693 99.64 161.741 99.512 161.853 99.384C161.965 99.272 162.093 99.208 162.253 99.208H165.261C165.405 99.208 165.533 99.272 165.645 99.384C165.757 99.512 165.821 99.64 165.821 99.8V104.92ZM176.927 107V103.688C176.927 103.096 176.719 102.648 176.303 102.344C176.719 101.992 176.927 101.496 176.927 100.888V99.88C176.927 99.272 176.703 98.76 176.287 98.344C175.855 97.928 175.311 97.72 174.655 97.72H169.983V107H171.567V103.128H174.639C174.895 103.128 175.055 103.192 175.151 103.288C175.247 103.4 175.295 103.608 175.295 103.896V107H176.927ZM175.295 100.872C175.295 101.16 175.247 101.352 175.151 101.448C175.055 101.544 174.847 101.592 174.559 101.592H171.567V99.128H174.735C174.863 99.128 174.991 99.208 175.119 99.336C175.231 99.464 175.295 99.608 175.295 99.768V100.872ZM185.499 107V105.512H181.083V103.128H184.507V101.608H181.083V99.208H185.499V97.72H179.483V107H185.499Z" fill="black"/>
<path d="M148.064 142.808V141.656C148.064 141.08 147.856 140.632 147.44 140.312C147.856 139.992 148.064 139.512 148.064 138.856V137.912C148.064 137.288 147.84 136.76 147.392 136.344C146.944 135.928 146.4 135.72 145.76 135.72H141.28V145H145.76C146.4 145 146.944 144.792 147.392 144.376C147.84 143.96 148.064 143.448 148.064 142.808ZM146.432 138.84C146.432 139.128 146.384 139.336 146.288 139.432C146.192 139.528 146 139.576 145.712 139.576H142.864V137.16H145.872C146 137.16 146.128 137.24 146.256 137.368C146.368 137.496 146.432 137.64 146.432 137.8V138.84ZM146.432 142.936C146.432 143.096 146.368 143.256 146.256 143.384C146.128 143.512 146 143.576 145.872 143.576H142.864V141.032H145.776C146.032 141.032 146.192 141.096 146.288 141.192C146.384 141.304 146.432 141.512 146.432 141.8V142.936ZM156.64 145V143.512H152.224V141.128H155.648V139.608H152.224V137.208H156.64V135.72H150.624V145H156.64ZM166.05 142.872V141.832C166.05 141.224 165.826 140.712 165.394 140.296C164.962 139.896 164.418 139.688 163.778 139.656C163.618 139.656 163.362 139.672 163.01 139.688C162.658 139.704 162.386 139.704 162.162 139.704C161.938 139.704 161.714 139.672 161.458 139.64C161.202 139.608 161.026 139.544 160.898 139.448C160.77 139.352 160.706 139.208 160.706 139.016V137.8C160.706 137.64 160.754 137.512 160.866 137.384C160.978 137.272 161.106 137.208 161.266 137.208H163.762C163.906 137.208 164.034 137.272 164.146 137.384C164.258 137.512 164.322 137.64 164.322 137.8V138.488H165.922V137.88C165.922 137.272 165.698 136.76 165.282 136.344C164.85 135.928 164.306 135.72 163.65 135.72H161.378C160.706 135.72 160.162 135.928 159.746 136.344C159.314 136.76 159.106 137.272 159.106 137.88V138.92C159.106 139.544 159.314 140.056 159.746 140.456C160.162 140.872 160.706 141.08 161.378 141.096C161.538 141.096 161.794 141.096 162.13 141.08C162.466 141.08 162.754 141.08 162.978 141.08C163.202 141.08 163.442 141.096 163.698 141.128C163.938 141.16 164.13 141.24 164.258 141.336C164.386 141.432 164.45 141.576 164.45 141.752V142.952C164.45 143.112 164.386 143.256 164.274 143.368C164.162 143.496 164.034 143.544 163.89 143.544H161.202C161.042 143.544 160.914 143.496 160.802 143.368C160.69 143.256 160.642 143.112 160.642 142.952V142.28H159.042V142.872C159.042 143.496 159.25 144.008 159.682 144.424C160.098 144.84 160.642 145.032 161.314 145.032H163.778C164.434 145.032 164.978 144.84 165.41 144.424C165.826 144.008 166.05 143.496 166.05 142.872ZM175.3 137.208V135.72H167.972V137.208H170.772V145H172.484V137.208H175.3Z" fill="black"/>
<g filter="url(#filter0_i_365_10551)">
<circle cx="60.5" cy="139.5" r="24.5" fill="#EAEAEA"/>
</g>
<defs>
<filter id="filter0_i_365_10551" x="36" y="115" width="50" height="50" filterUnits="userSpaceOnUse" color-interpolation-filters="sRGB">
<feFlood flood-opacity="0" result="BackgroundImageFix"/>
<feBlend mode="normal" in="SourceGraphic" in2="BackgroundImageFix" result="shape"/>
<feColorMatrix in="SourceAlpha" type="matrix" values="0 0 0 0 0 0 0 0 0 0 0 0 0 0 0 0 0 0 127 0" result="hardAlpha"/>
<feOffset dx="1" dy="1"/>
<feGaussianBlur stdDeviation="2.5"/>
<feComposite in2="hardAlpha" operator="arithmetic" k2="-1" k3="1"/>
<feColorMatrix type="matrix" values="0 0 0 0 0 0 0 0 0 0 0 0 0 0 0 0 0 0 0.05 0"/>
<feBlend mode="normal" in2="shape" result="effect1_innerShadow_365_10551"/>
</filter>
</defs>
</svg>
