<svg width="624" height="528" viewBox="0 0 624 528" fill="none" xmlns="http://www.w3.org/2000/svg">
<g clip-path="url(#clip0_265_18105)">
<rect width="624" height="528" fill="#111111"/>
<g clip-path="url(#clip1_265_18105)">
<rect y="528" width="48" height="48" stroke="#191919"/>
<rect x="624" y="528" width="48" height="48" stroke="#191919"/>
<rect y="480" width="48" height="48" stroke="#191919"/>
<rect x="624" y="480" width="48" height="48" stroke="#191919"/>
<rect y="432" width="48" height="48" stroke="#191919"/>
<rect x="624" y="432" width="48" height="48" stroke="#191919"/>
<rect y="384" width="48" height="48" stroke="#191919"/>
<rect x="624" y="384" width="48" height="48" stroke="#191919"/>
<rect y="336" width="48" height="48" stroke="#191919"/>
<rect x="624" y="336" width="48" height="48" stroke="#191919"/>
<rect y="288" width="48" height="48" stroke="#191919"/>
<rect x="624" y="288" width="48" height="48" stroke="#191919"/>
<rect y="240" width="48" height="48" stroke="#191919"/>
<rect x="624" y="240" width="48" height="48" stroke="#191919"/>
<rect y="192" width="48" height="48" stroke="#191919"/>
<rect x="624" y="192" width="48" height="48" stroke="#191919"/>
<rect y="144" width="48" height="48" stroke="#191919"/>
<rect x="624" y="144" width="48" height="48" stroke="#191919"/>
<rect y="96" width="48" height="48" stroke="#191919"/>
<rect x="624" y="96" width="48" height="48" stroke="#191919"/>
<rect y="48" width="48" height="48" stroke="#191919"/>
<rect x="624" y="48" width="48" height="48" stroke="#191919"/>
<rect width="48" height="48" stroke="#191919"/>
<rect x="624" width="48" height="48" stroke="#191919"/>
<rect x="48" y="528" width="48" height="48" stroke="#191919"/>
<rect x="48" y="480" width="48" height="48" stroke="#191919"/>
<rect x="48" y="432" width="48" height="48" stroke="#191919"/>
<rect x="48" y="384" width="48" height="48" stroke="#191919"/>
<rect x="48" y="336" width="48" height="48" stroke="#191919"/>
<rect x="48" y="288" width="48" height="48" stroke="#191919"/>
<rect x="48" y="240" width="48" height="48" stroke="#191919"/>
<rect x="48" y="192" width="48" height="48" stroke="#191919"/>
<rect x="48" y="144" width="48" height="48" stroke="#191919"/>
<rect x="48" y="96" width="48" height="48" stroke="#191919"/>
<rect x="48" y="48" width="48" height="48" stroke="#191919"/>
<rect x="48" width="48" height="48" stroke="#191919"/>
<rect x="96" y="528" width="48" height="48" stroke="#191919"/>
<rect x="96" y="480" width="48" height="48" stroke="#191919"/>
<rect x="96" y="432" width="48" height="48" stroke="#191919"/>
<rect x="96" y="384" width="48" height="48" stroke="#191919"/>
<rect x="96" y="336" width="48" height="48" stroke="#191919"/>
<rect x="96" y="288" width="48" height="48" stroke="#191919"/>
<rect x="96" y="240" width="48" height="48" stroke="#191919"/>
<rect x="96" y="192" width="48" height="48" stroke="#191919"/>
<rect x="96" y="144" width="48" height="48" stroke="#191919"/>
<rect x="96" y="96" width="48" height="48" stroke="#191919"/>
<rect x="96" y="48" width="48" height="48" stroke="#191919"/>
<rect x="96" width="48" height="48" stroke="#191919"/>
<rect x="144" y="528" width="48" height="48" stroke="#191919"/>
<rect x="144" y="480" width="48" height="48" stroke="#191919"/>
<rect x="144" y="432" width="48" height="48" stroke="#191919"/>
<rect x="144" y="384" width="48" height="48" stroke="#191919"/>
<rect x="144" y="336" width="48" height="48" stroke="#191919"/>
<rect x="144" y="288" width="48" height="48" stroke="#191919"/>
<rect x="144" y="240" width="48" height="48" stroke="#191919"/>
<rect x="144" y="192" width="48" height="48" stroke="#191919"/>
<rect x="144" y="144" width="48" height="48" stroke="#191919"/>
<rect x="144" y="96" width="48" height="48" stroke="#191919"/>
<rect x="144" y="48" width="48" height="48" stroke="#191919"/>
<rect x="144" width="48" height="48" stroke="#191919"/>
<rect x="192" y="528" width="48" height="48" stroke="#191919"/>
<rect x="192" y="480" width="48" height="48" stroke="#191919"/>
<rect x="192" y="432" width="48" height="48" stroke="#191919"/>
<rect x="192" y="384" width="48" height="48" stroke="#191919"/>
<rect x="192" y="336" width="48" height="48" stroke="#191919"/>
<rect x="192" y="288" width="48" height="48" stroke="#191919"/>
<rect x="192" y="240" width="48" height="48" stroke="#191919"/>
<rect x="192" y="192" width="48" height="48" stroke="#191919"/>
<rect x="192" y="144" width="48" height="48" stroke="#191919"/>
<rect x="192" y="96" width="48" height="48" stroke="#191919"/>
<rect x="192" y="48" width="48" height="48" stroke="#191919"/>
<rect x="192" width="48" height="48" stroke="#191919"/>
<rect x="240" y="528" width="48" height="48" stroke="#191919"/>
<rect x="240" y="480" width="48" height="48" stroke="#191919"/>
<rect x="240" y="432" width="48" height="48" stroke="#191919"/>
<rect x="240" y="384" width="48" height="48" stroke="#191919"/>
<rect x="240" y="336" width="48" height="48" stroke="#191919"/>
<rect x="240" y="288" width="48" height="48" stroke="#191919"/>
<rect x="240" y="240" width="48" height="48" stroke="#191919"/>
<rect x="240" y="192" width="48" height="48" stroke="#191919"/>
<rect x="240" y="144" width="48" height="48" stroke="#191919"/>
<rect x="240" y="96" width="48" height="48" stroke="#191919"/>
<rect x="240" y="48" width="48" height="48" stroke="#191919"/>
<rect x="240" width="48" height="48" stroke="#191919"/>
<rect x="288" y="528" width="48" height="48" stroke="#191919"/>
<rect x="288" y="480" width="48" height="48" stroke="#191919"/>
<rect x="288" y="432" width="48" height="48" stroke="#191919"/>
<rect x="288" y="384" width="48" height="48" stroke="#191919"/>
<rect x="288" y="336" width="48" height="48" stroke="#191919"/>
<rect x="288" y="288" width="48" height="48" stroke="#191919"/>
<rect x="288" y="240" width="48" height="48" stroke="#191919"/>
<rect x="288" y="192" width="48" height="48" stroke="#191919"/>
<rect x="288" y="144" width="48" height="48" stroke="#191919"/>
<rect x="288" y="96" width="48" height="48" stroke="#191919"/>
<rect x="288" y="48" width="48" height="48" stroke="#191919"/>
<rect x="288" width="48" height="48" stroke="#191919"/>
<rect x="336" y="528" width="48" height="48" stroke="#191919"/>
<rect x="336" y="480" width="48" height="48" stroke="#191919"/>
<rect x="336" y="432" width="48" height="48" stroke="#191919"/>
<rect x="336" y="384" width="48" height="48" stroke="#191919"/>
<rect x="336" y="336" width="48" height="48" stroke="#191919"/>
<rect x="336" y="288" width="48" height="48" stroke="#191919"/>
<rect x="336" y="240" width="48" height="48" stroke="#191919"/>
<rect x="336" y="192" width="48" height="48" stroke="#191919"/>
<rect x="336" y="144" width="48" height="48" stroke="#191919"/>
<rect x="336" y="96" width="48" height="48" stroke="#191919"/>
<rect x="336" y="48" width="48" height="48" stroke="#191919"/>
<rect x="336" width="48" height="48" stroke="#191919"/>
<rect x="384" y="528" width="48" height="48" stroke="#191919"/>
<rect x="384" y="480" width="48" height="48" stroke="#191919"/>
<rect x="384" y="432" width="48" height="48" stroke="#191919"/>
<rect x="384" y="384" width="48" height="48" stroke="#191919"/>
<rect x="384" y="336" width="48" height="48" stroke="#191919"/>
<rect x="384" y="288" width="48" height="48" stroke="#191919"/>
<rect x="384" y="240" width="48" height="48" stroke="#191919"/>
<rect x="384" y="192" width="48" height="48" stroke="#191919"/>
<rect x="384" y="144" width="48" height="48" stroke="#191919"/>
<rect x="384" y="96" width="48" height="48" stroke="#191919"/>
<rect x="384" y="48" width="48" height="48" stroke="#191919"/>
<rect x="384" width="48" height="48" stroke="#191919"/>
<rect x="432" y="528" width="48" height="48" stroke="#191919"/>
<rect x="432" y="480" width="48" height="48" stroke="#191919"/>
<rect x="432" y="432" width="48" height="48" stroke="#191919"/>
<rect x="432" y="384" width="48" height="48" stroke="#191919"/>
<rect x="432" y="336" width="48" height="48" stroke="#191919"/>
<rect x="432" y="288" width="48" height="48" stroke="#191919"/>
<rect x="432" y="240" width="48" height="48" stroke="#191919"/>
<rect x="432" y="192" width="48" height="48" stroke="#191919"/>
<rect x="432" y="144" width="48" height="48" stroke="#191919"/>
<rect x="432" y="96" width="48" height="48" stroke="#191919"/>
<rect x="432" y="48" width="48" height="48" stroke="#191919"/>
<rect x="432" width="48" height="48" stroke="#191919"/>
<rect x="480" y="528" width="48" height="48" stroke="#191919"/>
<rect x="480" y="480" width="48" height="48" stroke="#191919"/>
<rect x="480" y="432" width="48" height="48" stroke="#191919"/>
<rect x="480" y="384" width="48" height="48" stroke="#191919"/>
<rect x="480" y="336" width="48" height="48" stroke="#191919"/>
<rect x="480" y="288" width="48" height="48" stroke="#191919"/>
<rect x="480" y="240" width="48" height="48" stroke="#191919"/>
<rect x="480" y="192" width="48" height="48" stroke="#191919"/>
<rect x="480" y="144" width="48" height="48" stroke="#191919"/>
<rect x="480" y="96" width="48" height="48" stroke="#191919"/>
<rect x="480" y="48" width="48" height="48" stroke="#191919"/>
<rect x="480" width="48" height="48" stroke="#191919"/>
<rect x="528" y="528" width="48" height="48" stroke="#191919"/>
<rect x="528" y="480" width="48" height="48" stroke="#191919"/>
<rect x="528" y="432" width="48" height="48" stroke="#191919"/>
<rect x="528" y="384" width="48" height="48" stroke="#191919"/>
<rect x="528" y="336" width="48" height="48" stroke="#191919"/>
<rect x="528" y="288" width="48" height="48" stroke="#191919"/>
<rect x="528" y="240" width="48" height="48" stroke="#191919"/>
<rect x="528" y="192" width="48" height="48" stroke="#191919"/>
<rect x="528" y="144" width="48" height="48" stroke="#191919"/>
<rect x="528" y="96" width="48" height="48" stroke="#191919"/>
<rect x="528" y="48" width="48" height="48" stroke="#191919"/>
<rect x="528" width="48" height="48" stroke="#191919"/>
<rect x="576" y="528" width="48" height="48" stroke="#191919"/>
<rect x="576" y="480" width="48" height="48" stroke="#191919"/>
<rect x="576" y="432" width="48" height="48" stroke="#191919"/>
<rect x="576" y="384" width="48" height="48" stroke="#191919"/>
<rect x="576" y="336" width="48" height="48" stroke="#191919"/>
<rect x="576" y="288" width="48" height="48" stroke="#191919"/>
<rect x="576" y="240" width="48" height="48" stroke="#191919"/>
<rect x="576" y="192" width="48" height="48" stroke="#191919"/>
<rect x="576" y="144" width="48" height="48" stroke="#191919"/>
<rect x="576" y="96" width="48" height="48" stroke="#191919"/>
<rect x="576" y="48" width="48" height="48" stroke="#191919"/>
<rect x="576" width="48" height="48" stroke="#191919"/>
</g>
<rect width="624" height="96" fill="#111111"/>
<g opacity="0.16" clip-path="url(#clip2_265_18105)">
<rect y="503" width="48" height="25" fill="#7CCA91"/>
<rect x="48" y="480" width="48" height="48" fill="#D94A39"/>
<rect x="96" y="468" width="48" height="60" fill="#7CCA91"/>
<rect x="144" y="447" width="48" height="81" fill="#7CCA91"/>
<rect x="192" y="407" width="48" height="121" fill="#7CCA91"/>
<rect x="240" y="432" width="48" height="96" fill="#D94A39"/>
<rect x="288" y="455" width="48" height="73" fill="#D94A39"/>
<rect x="336" y="503" width="48" height="25" fill="#D94A39"/>
<rect x="384" y="494" width="48" height="34" fill="#7CCA91"/>
<rect x="432" y="468" width="48" height="60" fill="#7CCA91"/>
<rect x="480" y="432" width="48" height="96" fill="#7CCA91"/>
<rect x="528" y="512" width="48" height="16" fill="#D94A39"/>
<rect x="576" y="503" width="48" height="25" fill="#7CCA91"/>
</g>
</g>
<defs>
<clipPath id="clip0_265_18105">
<rect width="624" height="528" fill="white"/>
</clipPath>
<clipPath id="clip1_265_18105">
<rect width="624" height="624" fill="white"/>
</clipPath>
<clipPath id="clip2_265_18105">
<rect width="624" height="121" fill="white" transform="translate(0 407)"/>
</clipPath>
</defs>
</svg>
