<svg width="188" height="170" viewBox="0 0 188 170" fill="none" xmlns="http://www.w3.org/2000/svg">
<mask id="path-1-outside-1_365_10584" maskUnits="userSpaceOnUse" x="2.55884" y="7.64001" width="183" height="31" fill="black">
<rect fill="white" x="2.55884" y="7.64001" width="183" height="31"/>
<path d="M24.0388 29.33V20.846H14.7568V24.752H19.7548V29.498C19.7548 29.918 19.5868 30.296 19.2928 30.59C18.9988 30.926 18.6628 31.052 18.2848 31.052H11.3128C10.8928 31.052 10.5568 30.926 10.2628 30.59C9.96884 30.296 9.84284 29.918 9.84284 29.498V16.016C9.84284 15.596 9.96884 15.26 10.2628 14.924C10.5568 14.63 10.8928 14.462 11.3128 14.462H18.2848C18.6628 14.462 18.9988 14.63 19.2928 14.924C19.5868 15.26 19.7548 15.596 19.7548 16.016V18.032H24.0388V16.31C24.0388 14.714 23.4508 13.37 22.3588 12.278C21.2248 11.186 19.7968 10.64 18.0748 10.64H11.5228C9.75884 10.64 8.33084 11.186 7.23884 12.278C6.10484 13.37 5.55884 14.714 5.55884 16.31V29.33C5.55884 30.968 6.10484 32.312 7.23884 33.404C8.33084 34.496 9.75884 35 11.5228 35H18.0748C19.7968 35 21.2248 34.496 22.3588 33.404C23.4508 32.312 24.0388 30.968 24.0388 29.33Z"/>
<path d="M42.3344 35V31.094H30.7424V24.836H39.7304V20.846H30.7424V14.546H42.3344V10.64H26.5424V35H42.3344Z"/>
<path d="M62.836 14.546V10.64H43.6V14.546H50.95V35H55.444V14.546H62.836Z"/>
<path d="M92.7915 35V26.306C92.7915 24.752 92.2455 23.576 91.1535 22.778C92.2455 21.854 92.7915 20.552 92.7915 18.956V16.31C92.7915 14.714 92.2035 13.37 91.1115 12.278C89.9775 11.186 88.5495 10.64 86.8275 10.64H74.5635V35H78.7215V24.836H86.7855C87.4575 24.836 87.8775 25.004 88.1295 25.256C88.3815 25.55 88.5075 26.096 88.5075 26.852V35H92.7915ZM88.5075 18.914C88.5075 19.67 88.3815 20.174 88.1295 20.426C87.8775 20.678 87.3315 20.804 86.5755 20.804H78.7215V14.336H87.0375C87.3735 14.336 87.7095 14.546 88.0455 14.882C88.3395 15.218 88.5075 15.596 88.5075 16.016V18.914Z"/>
<path d="M111.093 35V31.094H99.501V24.836H108.489V20.846H99.501V14.546H111.093V10.64H95.301V35H111.093Z"/>
<path d="M132.099 20.174C132.099 19.25 131.973 18.494 131.763 17.906C131.511 17.318 131.091 16.73 130.503 16.142L124.707 10.64H121.011L115.215 16.142C114.585 16.73 114.165 17.318 113.955 17.906C113.703 18.494 113.619 19.25 113.619 20.174V35H117.861V27.314H127.857V35H132.099V20.174ZM127.857 23.618H117.861V20.384C117.861 19.712 118.029 19.166 118.407 18.788L122.817 14.336L127.311 18.788C127.647 19.166 127.857 19.712 127.857 20.384V23.618Z"/>
<path d="M153.082 29.33V16.31C153.082 14.714 152.494 13.37 151.402 12.278C150.268 11.186 148.84 10.64 147.118 10.64H134.602V35H147.118C148.84 35 150.268 34.496 151.402 33.404C152.494 32.312 153.082 30.968 153.082 29.33ZM148.798 29.54C148.798 29.96 148.63 30.338 148.336 30.632C148.042 30.968 147.706 31.094 147.328 31.094H138.802V14.546H147.328C147.706 14.546 148.042 14.714 148.336 15.008C148.63 15.344 148.798 15.68 148.798 16.1V29.54Z"/>
<path d="M173.814 17.15V10.64H169.572V16.982C169.572 17.486 169.53 17.78 169.488 17.906C169.404 18.074 169.278 18.242 169.026 18.494L164.658 22.904L160.332 18.494C160.08 18.242 159.912 18.074 159.87 17.906C159.786 17.78 159.786 17.486 159.786 16.982V10.64H155.586V17.15C155.586 18.032 155.67 18.746 155.922 19.334C156.132 19.922 156.552 20.468 157.182 21.056L162.558 26.39V35H166.842V26.39L172.218 21.056C172.806 20.468 173.226 19.922 173.478 19.334C173.688 18.746 173.814 18.032 173.814 17.15Z"/>
<path d="M182.245 10.64H176.533V16.982L177.331 28.28H181.447L182.245 16.982V10.64ZM181.825 35V30.296H176.869V35H181.825Z"/>
</mask>
<path d="M24.0388 29.33V20.846H14.7568V24.752H19.7548V29.498C19.7548 29.918 19.5868 30.296 19.2928 30.59C18.9988 30.926 18.6628 31.052 18.2848 31.052H11.3128C10.8928 31.052 10.5568 30.926 10.2628 30.59C9.96884 30.296 9.84284 29.918 9.84284 29.498V16.016C9.84284 15.596 9.96884 15.26 10.2628 14.924C10.5568 14.63 10.8928 14.462 11.3128 14.462H18.2848C18.6628 14.462 18.9988 14.63 19.2928 14.924C19.5868 15.26 19.7548 15.596 19.7548 16.016V18.032H24.0388V16.31C24.0388 14.714 23.4508 13.37 22.3588 12.278C21.2248 11.186 19.7968 10.64 18.0748 10.64H11.5228C9.75884 10.64 8.33084 11.186 7.23884 12.278C6.10484 13.37 5.55884 14.714 5.55884 16.31V29.33C5.55884 30.968 6.10484 32.312 7.23884 33.404C8.33084 34.496 9.75884 35 11.5228 35H18.0748C19.7968 35 21.2248 34.496 22.3588 33.404C23.4508 32.312 24.0388 30.968 24.0388 29.33Z" fill="white"/>
<path d="M42.3344 35V31.094H30.7424V24.836H39.7304V20.846H30.7424V14.546H42.3344V10.64H26.5424V35H42.3344Z" fill="white"/>
<path d="M62.836 14.546V10.64H43.6V14.546H50.95V35H55.444V14.546H62.836Z" fill="white"/>
<path d="M92.7915 35V26.306C92.7915 24.752 92.2455 23.576 91.1535 22.778C92.2455 21.854 92.7915 20.552 92.7915 18.956V16.31C92.7915 14.714 92.2035 13.37 91.1115 12.278C89.9775 11.186 88.5495 10.64 86.8275 10.64H74.5635V35H78.7215V24.836H86.7855C87.4575 24.836 87.8775 25.004 88.1295 25.256C88.3815 25.55 88.5075 26.096 88.5075 26.852V35H92.7915ZM88.5075 18.914C88.5075 19.67 88.3815 20.174 88.1295 20.426C87.8775 20.678 87.3315 20.804 86.5755 20.804H78.7215V14.336H87.0375C87.3735 14.336 87.7095 14.546 88.0455 14.882C88.3395 15.218 88.5075 15.596 88.5075 16.016V18.914Z" fill="white"/>
<path d="M111.093 35V31.094H99.501V24.836H108.489V20.846H99.501V14.546H111.093V10.64H95.301V35H111.093Z" fill="white"/>
<path d="M132.099 20.174C132.099 19.25 131.973 18.494 131.763 17.906C131.511 17.318 131.091 16.73 130.503 16.142L124.707 10.64H121.011L115.215 16.142C114.585 16.73 114.165 17.318 113.955 17.906C113.703 18.494 113.619 19.25 113.619 20.174V35H117.861V27.314H127.857V35H132.099V20.174ZM127.857 23.618H117.861V20.384C117.861 19.712 118.029 19.166 118.407 18.788L122.817 14.336L127.311 18.788C127.647 19.166 127.857 19.712 127.857 20.384V23.618Z" fill="white"/>
<path d="M153.082 29.33V16.31C153.082 14.714 152.494 13.37 151.402 12.278C150.268 11.186 148.84 10.64 147.118 10.64H134.602V35H147.118C148.84 35 150.268 34.496 151.402 33.404C152.494 32.312 153.082 30.968 153.082 29.33ZM148.798 29.54C148.798 29.96 148.63 30.338 148.336 30.632C148.042 30.968 147.706 31.094 147.328 31.094H138.802V14.546H147.328C147.706 14.546 148.042 14.714 148.336 15.008C148.63 15.344 148.798 15.68 148.798 16.1V29.54Z" fill="white"/>
<path d="M173.814 17.15V10.64H169.572V16.982C169.572 17.486 169.53 17.78 169.488 17.906C169.404 18.074 169.278 18.242 169.026 18.494L164.658 22.904L160.332 18.494C160.08 18.242 159.912 18.074 159.87 17.906C159.786 17.78 159.786 17.486 159.786 16.982V10.64H155.586V17.15C155.586 18.032 155.67 18.746 155.922 19.334C156.132 19.922 156.552 20.468 157.182 21.056L162.558 26.39V35H166.842V26.39L172.218 21.056C172.806 20.468 173.226 19.922 173.478 19.334C173.688 18.746 173.814 18.032 173.814 17.15Z" fill="white"/>
<path d="M182.245 10.64H176.533V16.982L177.331 28.28H181.447L182.245 16.982V10.64ZM181.825 35V30.296H176.869V35H181.825Z" fill="white"/>
<path d="M24.0388 29.33V20.846H14.7568V24.752H19.7548V29.498C19.7548 29.918 19.5868 30.296 19.2928 30.59C18.9988 30.926 18.6628 31.052 18.2848 31.052H11.3128C10.8928 31.052 10.5568 30.926 10.2628 30.59C9.96884 30.296 9.84284 29.918 9.84284 29.498V16.016C9.84284 15.596 9.96884 15.26 10.2628 14.924C10.5568 14.63 10.8928 14.462 11.3128 14.462H18.2848C18.6628 14.462 18.9988 14.63 19.2928 14.924C19.5868 15.26 19.7548 15.596 19.7548 16.016V18.032H24.0388V16.31C24.0388 14.714 23.4508 13.37 22.3588 12.278C21.2248 11.186 19.7968 10.64 18.0748 10.64H11.5228C9.75884 10.64 8.33084 11.186 7.23884 12.278C6.10484 13.37 5.55884 14.714 5.55884 16.31V29.33C5.55884 30.968 6.10484 32.312 7.23884 33.404C8.33084 34.496 9.75884 35 11.5228 35H18.0748C19.7968 35 21.2248 34.496 22.3588 33.404C23.4508 32.312 24.0388 30.968 24.0388 29.33Z" stroke="black" stroke-width="6" mask="url(#path-1-outside-1_365_10584)"/>
<path d="M42.3344 35V31.094H30.7424V24.836H39.7304V20.846H30.7424V14.546H42.3344V10.64H26.5424V35H42.3344Z" stroke="black" stroke-width="6" mask="url(#path-1-outside-1_365_10584)"/>
<path d="M62.836 14.546V10.64H43.6V14.546H50.95V35H55.444V14.546H62.836Z" stroke="black" stroke-width="6" mask="url(#path-1-outside-1_365_10584)"/>
<path d="M92.7915 35V26.306C92.7915 24.752 92.2455 23.576 91.1535 22.778C92.2455 21.854 92.7915 20.552 92.7915 18.956V16.31C92.7915 14.714 92.2035 13.37 91.1115 12.278C89.9775 11.186 88.5495 10.64 86.8275 10.64H74.5635V35H78.7215V24.836H86.7855C87.4575 24.836 87.8775 25.004 88.1295 25.256C88.3815 25.55 88.5075 26.096 88.5075 26.852V35H92.7915ZM88.5075 18.914C88.5075 19.67 88.3815 20.174 88.1295 20.426C87.8775 20.678 87.3315 20.804 86.5755 20.804H78.7215V14.336H87.0375C87.3735 14.336 87.7095 14.546 88.0455 14.882C88.3395 15.218 88.5075 15.596 88.5075 16.016V18.914Z" stroke="black" stroke-width="6" mask="url(#path-1-outside-1_365_10584)"/>
<path d="M111.093 35V31.094H99.501V24.836H108.489V20.846H99.501V14.546H111.093V10.64H95.301V35H111.093Z" stroke="black" stroke-width="6" mask="url(#path-1-outside-1_365_10584)"/>
<path d="M132.099 20.174C132.099 19.25 131.973 18.494 131.763 17.906C131.511 17.318 131.091 16.73 130.503 16.142L124.707 10.64H121.011L115.215 16.142C114.585 16.73 114.165 17.318 113.955 17.906C113.703 18.494 113.619 19.25 113.619 20.174V35H117.861V27.314H127.857V35H132.099V20.174ZM127.857 23.618H117.861V20.384C117.861 19.712 118.029 19.166 118.407 18.788L122.817 14.336L127.311 18.788C127.647 19.166 127.857 19.712 127.857 20.384V23.618Z" stroke="black" stroke-width="6" mask="url(#path-1-outside-1_365_10584)"/>
<path d="M153.082 29.33V16.31C153.082 14.714 152.494 13.37 151.402 12.278C150.268 11.186 148.84 10.64 147.118 10.64H134.602V35H147.118C148.84 35 150.268 34.496 151.402 33.404C152.494 32.312 153.082 30.968 153.082 29.33ZM148.798 29.54C148.798 29.96 148.63 30.338 148.336 30.632C148.042 30.968 147.706 31.094 147.328 31.094H138.802V14.546H147.328C147.706 14.546 148.042 14.714 148.336 15.008C148.63 15.344 148.798 15.68 148.798 16.1V29.54Z" stroke="black" stroke-width="6" mask="url(#path-1-outside-1_365_10584)"/>
<path d="M173.814 17.15V10.64H169.572V16.982C169.572 17.486 169.53 17.78 169.488 17.906C169.404 18.074 169.278 18.242 169.026 18.494L164.658 22.904L160.332 18.494C160.08 18.242 159.912 18.074 159.87 17.906C159.786 17.78 159.786 17.486 159.786 16.982V10.64H155.586V17.15C155.586 18.032 155.67 18.746 155.922 19.334C156.132 19.922 156.552 20.468 157.182 21.056L162.558 26.39V35H166.842V26.39L172.218 21.056C172.806 20.468 173.226 19.922 173.478 19.334C173.688 18.746 173.814 18.032 173.814 17.15Z" stroke="black" stroke-width="6" mask="url(#path-1-outside-1_365_10584)"/>
<path d="M182.245 10.64H176.533V16.982L177.331 28.28H181.447L182.245 16.982V10.64ZM181.825 35V30.296H176.869V35H181.825Z" stroke="black" stroke-width="6" mask="url(#path-1-outside-1_365_10584)"/>
<path d="M117.5 138.25H117.173L116.95 138.49L110.45 145.49L109.977 146L110.45 146.51L116.95 153.51L117.173 153.75H117.5H149.5H150.25V153V139V138.25H149.5H117.5Z" fill="white" stroke="#191919" stroke-width="1.5"/>
<path d="M71 138.25H71.3271L71.5496 138.49L78.0496 145.49L78.5235 146L78.0496 146.51L71.5496 153.51L71.3271 153.75H71H39H38.25V153V139V138.25H39H71Z" fill="white" stroke="#191919" stroke-width="1.5"/>
<path d="M128.373 142.721V141.14H120.587V142.721H123.562V151H125.381V142.721H128.373ZM136.861 144.999C136.861 144.625 136.81 144.319 136.725 144.081C136.623 143.843 136.453 143.605 136.215 143.367L133.869 141.14H132.373L130.027 143.367C129.772 143.605 129.602 143.843 129.517 144.081C129.415 144.319 129.381 144.625 129.381 144.999V151H131.098V147.889H135.144V151H136.861V144.999ZM135.144 146.393H131.098V145.084C131.098 144.812 131.166 144.591 131.319 144.438L133.104 142.636L134.923 144.438C135.059 144.591 135.144 144.812 135.144 145.084V146.393ZM146.069 144.574V143.435C146.069 142.789 145.831 142.245 145.389 141.803C144.93 141.361 144.352 141.14 143.655 141.14H138.895V151H140.595V146.886H143.655C144.335 146.886 144.913 146.682 145.372 146.24C145.831 145.798 146.069 145.254 146.069 144.574ZM144.369 144.693C144.369 144.863 144.301 144.999 144.182 145.118C144.063 145.254 143.927 145.305 143.774 145.305H140.595V142.687H143.774C143.927 142.687 144.063 142.755 144.182 142.874C144.301 143.01 144.369 143.146 144.369 143.316V144.693Z" fill="black"/>
<path d="M49.8726 142.721V141.14H42.0866V142.721H45.0616V151H46.8806V142.721H49.8726ZM58.3615 144.999C58.3615 144.625 58.3105 144.319 58.2255 144.081C58.1235 143.843 57.9535 143.605 57.7155 143.367L55.3695 141.14H53.8735L51.5275 143.367C51.2725 143.605 51.1025 143.843 51.0175 144.081C50.9155 144.319 50.8815 144.625 50.8815 144.999V151H52.5985V147.889H56.6445V151H58.3615V144.999ZM56.6445 146.393H52.5985V145.084C52.5985 144.812 52.6665 144.591 52.8195 144.438L54.6045 142.636L56.4235 144.438C56.5595 144.591 56.6445 144.812 56.6445 145.084V146.393ZM67.5688 144.574V143.435C67.5688 142.789 67.3308 142.245 66.8888 141.803C66.4298 141.361 65.8518 141.14 65.1548 141.14H60.3948V151H62.0948V146.886H65.1548C65.8348 146.886 66.4128 146.682 66.8718 146.24C67.3308 145.798 67.5688 145.254 67.5688 144.574ZM65.8688 144.693C65.8688 144.863 65.8008 144.999 65.6818 145.118C65.5628 145.254 65.4268 145.305 65.2738 145.305H62.0948V142.687H65.2738C65.4268 142.687 65.5628 142.755 65.6818 142.874C65.8008 143.01 65.8688 143.146 65.8688 143.316V144.693Z" fill="black"/>
<path d="M103.541 160.821H103.561V160.296V160.071V152.409C103.561 151.314 102.673 150.426 101.577 150.426C101.042 150.426 100.557 150.638 100.2 150.982C99.9681 150.144 99.2001 149.529 98.2883 149.529C97.7364 149.529 97.2371 149.755 96.8775 150.118C96.7132 149.189 95.9013 148.483 94.9245 148.483C94.4245 148.483 93.9677 148.668 93.6189 148.973V145.233C93.6189 144.138 92.7309 143.25 91.6355 143.25C90.5401 143.25 89.6521 144.138 89.6521 145.233V157.294L87.7607 155.011C87.0618 154.168 85.8115 154.05 84.968 154.749L84.968 154.749C84.1245 155.448 84.0073 156.698 84.7061 157.542L89.3336 163.127L89.3272 163.133L89.7865 163.689C89.8635 163.782 89.9562 163.889 90.0617 164.006L90.2121 164.187L90.2121 164.187C90.3035 164.298 90.4048 164.396 90.5141 164.482C91.1328 165.103 92.0298 165.891 92.9446 166.349L92.9446 166.349C92.9753 166.364 93.0062 166.379 93.0372 166.393C94.0529 166.94 95.2193 167.25 96.4569 167.25C100.184 167.25 103.266 164.431 103.541 160.821Z" fill="white" stroke="#191919" stroke-width="1.5"/>
<path d="M104.838 80.2069L104.619 80.8263L105.204 81.1251C106.405 81.7383 107.25 83.0441 107.25 84.5712V84.5724C107.25 86.015 106.493 87.2591 105.397 87.9089L104.975 88.1593L105.035 88.6465C105.056 88.8128 105.067 88.9761 105.067 89.1404C105.067 91.2852 103.418 92.962 101.454 92.962C101.007 92.962 100.585 92.8814 100.201 92.7304L99.5436 92.472L99.2464 93.1128C98.6518 94.395 97.4114 95.25 95.9992 95.25C94.5884 95.25 93.3477 94.3952 92.7513 93.1123L92.453 92.4705L91.795 92.7311C91.4115 92.883 90.9906 92.9644 90.546 92.9644C88.5813 92.9644 86.9328 91.2877 86.9328 89.1428C86.9328 88.9784 86.944 88.8137 86.9641 88.6426L87.0209 88.1586L86.6017 87.9101C85.5046 87.2596 84.75 86.0159 84.75 84.5712C84.75 83.0418 85.5949 81.7382 86.7949 81.1251L87.3794 80.8264L87.1608 80.2075C87.0132 79.7896 86.9328 79.3368 86.9328 78.8572C86.9328 76.712 88.5813 75.0356 90.546 75.0356C90.9919 75.0356 91.4132 75.1162 91.796 75.2682L92.4538 75.5295L92.7526 74.8879C93.3499 73.6058 94.5916 72.75 96.0008 72.75C97.4109 72.75 98.6526 73.604 99.246 74.8882L99.5441 75.5335L100.205 75.2703C100.587 75.1177 101.007 75.038 101.454 75.038C103.417 75.038 105.067 76.7128 105.067 78.8572C105.067 79.3371 104.986 79.7897 104.838 80.2069Z" fill="#D6D6D6" stroke="#543847" stroke-width="1.5"/>
<path d="M100.237 80.534L95.2847 87.9624C95.1191 88.2104 94.8479 88.344 94.5703 88.344C94.4071 88.344 94.2411 88.2984 94.0947 88.2L93.9635 88.0928L91.2035 85.3328C90.8687 84.998 90.8687 84.4548 91.2035 84.1212C91.5383 83.7876 92.0811 83.7852 92.4151 84.1212L94.4379 86.1408L98.8091 79.5808C99.0719 79.1864 99.6043 79.0824 99.9971 79.344C100.393 79.6072 100.5 80.1396 100.237 80.5328V80.534Z" fill="#543847"/>
<path d="M82.8698 89.4362L82.8697 89.4362C82.4633 89.3394 82.0693 89.1961 81.6955 89.0092L78.3859 87.3544C76.729 86.526 75.6283 84.8889 75.4862 83.0419L75.4171 82.1431C75.3295 81.0046 75.7985 79.8942 76.6757 79.1632C77.3666 78.5874 78.2513 78.2974 79.149 78.3523L84.2562 78.665C86.0304 78.7736 87.6481 79.7169 88.6164 81.2075L88.6833 81.3105L89.3123 80.9019L88.6833 81.3105C89.6142 82.7434 89.8069 84.534 89.2022 86.1322C88.2472 88.6563 85.5659 90.0783 82.9406 89.4531L82.8698 89.4362Z" fill="#EAEAEA" stroke="#543847" stroke-width="1.5"/>
<mask id="path-10-outside-2_365_10584" maskUnits="userSpaceOnUse" x="83.9378" y="109" width="16" height="15" fill="black">
<rect fill="white" x="83.9378" y="109" width="16" height="15"/>
<path fill-rule="evenodd" clip-rule="evenodd" d="M98.0622 117.75L92 111L85.9378 117.75H89V122H95V117.75H98.0622Z"/>
</mask>
<path fill-rule="evenodd" clip-rule="evenodd" d="M98.0622 117.75L92 111L85.9378 117.75H89V122H95V117.75H98.0622Z" fill="white"/>
<path d="M92 111L93.116 109.998C92.8315 109.681 92.4258 109.5 92 109.5C91.5742 109.5 91.1685 109.681 90.884 109.998L92 111ZM98.0622 117.75V119.25C98.6543 119.25 99.1909 118.902 99.4321 118.361C99.6733 117.82 99.5738 117.188 99.1782 116.748L98.0622 117.75ZM85.9378 117.75L84.8218 116.748C84.4262 117.188 84.3267 117.82 84.5679 118.361C84.8091 118.902 85.3457 119.25 85.9378 119.25V117.75ZM89 117.75H90.5C90.5 116.922 89.8284 116.25 89 116.25V117.75ZM89 122H87.5C87.5 122.828 88.1716 123.5 89 123.5V122ZM95 122V123.5C95.8284 123.5 96.5 122.828 96.5 122H95ZM95 117.75V116.25C94.1716 116.25 93.5 116.922 93.5 117.75H95ZM90.884 112.002L96.9462 118.752L99.1782 116.748L93.116 109.998L90.884 112.002ZM87.0538 118.752L93.116 112.002L90.884 109.998L84.8218 116.748L87.0538 118.752ZM89 116.25H85.9378V119.25H89V116.25ZM90.5 122V117.75H87.5V122H90.5ZM95 120.5H89V123.5H95V120.5ZM93.5 117.75V122H96.5V117.75H93.5ZM98.0622 116.25H95V119.25H98.0622V116.25Z" fill="#191919" mask="url(#path-10-outside-2_365_10584)"/>
</svg>
